%TF.GenerationSoftware,KiCad,Pcbnew,(6.0.6-0)*%
%TF.CreationDate,2022-10-23T01:51:18+09:00*%
%TF.ProjectId,Subaru,53756261-7275-42e6-9b69-6361645f7063,rev?*%
%TF.SameCoordinates,Original*%
%TF.FileFunction,Legend,Bot*%
%TF.FilePolarity,Positive*%
%FSLAX46Y46*%
G04 Gerber Fmt 4.6, Leading zero omitted, Abs format (unit mm)*
G04 Created by KiCad (PCBNEW (6.0.6-0)) date 2022-10-23 01:51:18*
%MOMM*%
%LPD*%
G01*
G04 APERTURE LIST*
%ADD10C,0.150000*%
%ADD11C,0.120000*%
%ADD12C,0.200000*%
G04 APERTURE END LIST*
D10*
%TO.C,U2*%
X129031904Y-87082380D02*
X129031904Y-87891904D01*
X128984285Y-87987142D01*
X128936666Y-88034761D01*
X128841428Y-88082380D01*
X128650952Y-88082380D01*
X128555714Y-88034761D01*
X128508095Y-87987142D01*
X128460476Y-87891904D01*
X128460476Y-87082380D01*
X128031904Y-87177619D02*
X127984285Y-87130000D01*
X127889047Y-87082380D01*
X127650952Y-87082380D01*
X127555714Y-87130000D01*
X127508095Y-87177619D01*
X127460476Y-87272857D01*
X127460476Y-87368095D01*
X127508095Y-87510952D01*
X128079523Y-88082380D01*
X127460476Y-88082380D01*
%TO.C,L1*%
X142406666Y-100502380D02*
X142882857Y-100502380D01*
X142882857Y-99502380D01*
X141549523Y-100502380D02*
X142120952Y-100502380D01*
X141835238Y-100502380D02*
X141835238Y-99502380D01*
X141930476Y-99645238D01*
X142025714Y-99740476D01*
X142120952Y-99788095D01*
%TO.C,C6*%
X131611666Y-78462142D02*
X131659285Y-78509761D01*
X131802142Y-78557380D01*
X131897380Y-78557380D01*
X132040238Y-78509761D01*
X132135476Y-78414523D01*
X132183095Y-78319285D01*
X132230714Y-78128809D01*
X132230714Y-77985952D01*
X132183095Y-77795476D01*
X132135476Y-77700238D01*
X132040238Y-77605000D01*
X131897380Y-77557380D01*
X131802142Y-77557380D01*
X131659285Y-77605000D01*
X131611666Y-77652619D01*
X130754523Y-77557380D02*
X130945000Y-77557380D01*
X131040238Y-77605000D01*
X131087857Y-77652619D01*
X131183095Y-77795476D01*
X131230714Y-77985952D01*
X131230714Y-78366904D01*
X131183095Y-78462142D01*
X131135476Y-78509761D01*
X131040238Y-78557380D01*
X130849761Y-78557380D01*
X130754523Y-78509761D01*
X130706904Y-78462142D01*
X130659285Y-78366904D01*
X130659285Y-78128809D01*
X130706904Y-78033571D01*
X130754523Y-77985952D01*
X130849761Y-77938333D01*
X131040238Y-77938333D01*
X131135476Y-77985952D01*
X131183095Y-78033571D01*
X131230714Y-78128809D01*
%TO.C,R3*%
X144311666Y-75382380D02*
X144645000Y-74906190D01*
X144883095Y-75382380D02*
X144883095Y-74382380D01*
X144502142Y-74382380D01*
X144406904Y-74430000D01*
X144359285Y-74477619D01*
X144311666Y-74572857D01*
X144311666Y-74715714D01*
X144359285Y-74810952D01*
X144406904Y-74858571D01*
X144502142Y-74906190D01*
X144883095Y-74906190D01*
X143978333Y-74382380D02*
X143359285Y-74382380D01*
X143692619Y-74763333D01*
X143549761Y-74763333D01*
X143454523Y-74810952D01*
X143406904Y-74858571D01*
X143359285Y-74953809D01*
X143359285Y-75191904D01*
X143406904Y-75287142D01*
X143454523Y-75334761D01*
X143549761Y-75382380D01*
X143835476Y-75382380D01*
X143930714Y-75334761D01*
X143978333Y-75287142D01*
%TO.C,J3*%
X151852380Y-75231666D02*
X152566666Y-75231666D01*
X152709523Y-75184047D01*
X152804761Y-75088809D01*
X152852380Y-74945952D01*
X152852380Y-74850714D01*
X151852380Y-75612619D02*
X151852380Y-76231666D01*
X152233333Y-75898333D01*
X152233333Y-76041190D01*
X152280952Y-76136428D01*
X152328571Y-76184047D01*
X152423809Y-76231666D01*
X152661904Y-76231666D01*
X152757142Y-76184047D01*
X152804761Y-76136428D01*
X152852380Y-76041190D01*
X152852380Y-75755476D01*
X152804761Y-75660238D01*
X152757142Y-75612619D01*
%TO.C,C7*%
X111926666Y-92432142D02*
X111974285Y-92479761D01*
X112117142Y-92527380D01*
X112212380Y-92527380D01*
X112355238Y-92479761D01*
X112450476Y-92384523D01*
X112498095Y-92289285D01*
X112545714Y-92098809D01*
X112545714Y-91955952D01*
X112498095Y-91765476D01*
X112450476Y-91670238D01*
X112355238Y-91575000D01*
X112212380Y-91527380D01*
X112117142Y-91527380D01*
X111974285Y-91575000D01*
X111926666Y-91622619D01*
X111593333Y-91527380D02*
X110926666Y-91527380D01*
X111355238Y-92527380D01*
%TO.C,C10*%
X138437857Y-100527142D02*
X138485476Y-100574761D01*
X138628333Y-100622380D01*
X138723571Y-100622380D01*
X138866428Y-100574761D01*
X138961666Y-100479523D01*
X139009285Y-100384285D01*
X139056904Y-100193809D01*
X139056904Y-100050952D01*
X139009285Y-99860476D01*
X138961666Y-99765238D01*
X138866428Y-99670000D01*
X138723571Y-99622380D01*
X138628333Y-99622380D01*
X138485476Y-99670000D01*
X138437857Y-99717619D01*
X137485476Y-100622380D02*
X138056904Y-100622380D01*
X137771190Y-100622380D02*
X137771190Y-99622380D01*
X137866428Y-99765238D01*
X137961666Y-99860476D01*
X138056904Y-99908095D01*
X136866428Y-99622380D02*
X136771190Y-99622380D01*
X136675952Y-99670000D01*
X136628333Y-99717619D01*
X136580714Y-99812857D01*
X136533095Y-100003333D01*
X136533095Y-100241428D01*
X136580714Y-100431904D01*
X136628333Y-100527142D01*
X136675952Y-100574761D01*
X136771190Y-100622380D01*
X136866428Y-100622380D01*
X136961666Y-100574761D01*
X137009285Y-100527142D01*
X137056904Y-100431904D01*
X137104523Y-100241428D01*
X137104523Y-100003333D01*
X137056904Y-99812857D01*
X137009285Y-99717619D01*
X136961666Y-99670000D01*
X136866428Y-99622380D01*
%TO.C,C3*%
X151647142Y-84923333D02*
X151694761Y-84875714D01*
X151742380Y-84732857D01*
X151742380Y-84637619D01*
X151694761Y-84494761D01*
X151599523Y-84399523D01*
X151504285Y-84351904D01*
X151313809Y-84304285D01*
X151170952Y-84304285D01*
X150980476Y-84351904D01*
X150885238Y-84399523D01*
X150790000Y-84494761D01*
X150742380Y-84637619D01*
X150742380Y-84732857D01*
X150790000Y-84875714D01*
X150837619Y-84923333D01*
X150742380Y-85256666D02*
X150742380Y-85875714D01*
X151123333Y-85542380D01*
X151123333Y-85685238D01*
X151170952Y-85780476D01*
X151218571Y-85828095D01*
X151313809Y-85875714D01*
X151551904Y-85875714D01*
X151647142Y-85828095D01*
X151694761Y-85780476D01*
X151742380Y-85685238D01*
X151742380Y-85399523D01*
X151694761Y-85304285D01*
X151647142Y-85256666D01*
%TO.C,C2*%
X151687142Y-93178333D02*
X151734761Y-93130714D01*
X151782380Y-92987857D01*
X151782380Y-92892619D01*
X151734761Y-92749761D01*
X151639523Y-92654523D01*
X151544285Y-92606904D01*
X151353809Y-92559285D01*
X151210952Y-92559285D01*
X151020476Y-92606904D01*
X150925238Y-92654523D01*
X150830000Y-92749761D01*
X150782380Y-92892619D01*
X150782380Y-92987857D01*
X150830000Y-93130714D01*
X150877619Y-93178333D01*
X150877619Y-93559285D02*
X150830000Y-93606904D01*
X150782380Y-93702142D01*
X150782380Y-93940238D01*
X150830000Y-94035476D01*
X150877619Y-94083095D01*
X150972857Y-94130714D01*
X151068095Y-94130714D01*
X151210952Y-94083095D01*
X151782380Y-93511666D01*
X151782380Y-94130714D01*
%TO.C,R4*%
X144311666Y-76652380D02*
X144645000Y-76176190D01*
X144883095Y-76652380D02*
X144883095Y-75652380D01*
X144502142Y-75652380D01*
X144406904Y-75700000D01*
X144359285Y-75747619D01*
X144311666Y-75842857D01*
X144311666Y-75985714D01*
X144359285Y-76080952D01*
X144406904Y-76128571D01*
X144502142Y-76176190D01*
X144883095Y-76176190D01*
X143454523Y-75985714D02*
X143454523Y-76652380D01*
X143692619Y-75604761D02*
X143930714Y-76319047D01*
X143311666Y-76319047D01*
%TO.C,R1*%
X111926666Y-88717380D02*
X112260000Y-88241190D01*
X112498095Y-88717380D02*
X112498095Y-87717380D01*
X112117142Y-87717380D01*
X112021904Y-87765000D01*
X111974285Y-87812619D01*
X111926666Y-87907857D01*
X111926666Y-88050714D01*
X111974285Y-88145952D01*
X112021904Y-88193571D01*
X112117142Y-88241190D01*
X112498095Y-88241190D01*
X110974285Y-88717380D02*
X111545714Y-88717380D01*
X111260000Y-88717380D02*
X111260000Y-87717380D01*
X111355238Y-87860238D01*
X111450476Y-87955476D01*
X111545714Y-88003095D01*
%TO.C,C9*%
X140501666Y-95607142D02*
X140549285Y-95654761D01*
X140692142Y-95702380D01*
X140787380Y-95702380D01*
X140930238Y-95654761D01*
X141025476Y-95559523D01*
X141073095Y-95464285D01*
X141120714Y-95273809D01*
X141120714Y-95130952D01*
X141073095Y-94940476D01*
X141025476Y-94845238D01*
X140930238Y-94750000D01*
X140787380Y-94702380D01*
X140692142Y-94702380D01*
X140549285Y-94750000D01*
X140501666Y-94797619D01*
X140025476Y-95702380D02*
X139835000Y-95702380D01*
X139739761Y-95654761D01*
X139692142Y-95607142D01*
X139596904Y-95464285D01*
X139549285Y-95273809D01*
X139549285Y-94892857D01*
X139596904Y-94797619D01*
X139644523Y-94750000D01*
X139739761Y-94702380D01*
X139930238Y-94702380D01*
X140025476Y-94750000D01*
X140073095Y-94797619D01*
X140120714Y-94892857D01*
X140120714Y-95130952D01*
X140073095Y-95226190D01*
X140025476Y-95273809D01*
X139930238Y-95321428D01*
X139739761Y-95321428D01*
X139644523Y-95273809D01*
X139596904Y-95226190D01*
X139549285Y-95130952D01*
%TO.C,R2*%
X111926666Y-86812380D02*
X112260000Y-86336190D01*
X112498095Y-86812380D02*
X112498095Y-85812380D01*
X112117142Y-85812380D01*
X112021904Y-85860000D01*
X111974285Y-85907619D01*
X111926666Y-86002857D01*
X111926666Y-86145714D01*
X111974285Y-86240952D01*
X112021904Y-86288571D01*
X112117142Y-86336190D01*
X112498095Y-86336190D01*
X111545714Y-85907619D02*
X111498095Y-85860000D01*
X111402857Y-85812380D01*
X111164761Y-85812380D01*
X111069523Y-85860000D01*
X111021904Y-85907619D01*
X110974285Y-86002857D01*
X110974285Y-86098095D01*
X111021904Y-86240952D01*
X111593333Y-86812380D01*
X110974285Y-86812380D01*
%TO.C,C4*%
X134786666Y-78462142D02*
X134834285Y-78509761D01*
X134977142Y-78557380D01*
X135072380Y-78557380D01*
X135215238Y-78509761D01*
X135310476Y-78414523D01*
X135358095Y-78319285D01*
X135405714Y-78128809D01*
X135405714Y-77985952D01*
X135358095Y-77795476D01*
X135310476Y-77700238D01*
X135215238Y-77605000D01*
X135072380Y-77557380D01*
X134977142Y-77557380D01*
X134834285Y-77605000D01*
X134786666Y-77652619D01*
X133929523Y-77890714D02*
X133929523Y-78557380D01*
X134167619Y-77509761D02*
X134405714Y-78224047D01*
X133786666Y-78224047D01*
%TO.C,R5*%
X131611666Y-83162380D02*
X131945000Y-82686190D01*
X132183095Y-83162380D02*
X132183095Y-82162380D01*
X131802142Y-82162380D01*
X131706904Y-82210000D01*
X131659285Y-82257619D01*
X131611666Y-82352857D01*
X131611666Y-82495714D01*
X131659285Y-82590952D01*
X131706904Y-82638571D01*
X131802142Y-82686190D01*
X132183095Y-82686190D01*
X130706904Y-82162380D02*
X131183095Y-82162380D01*
X131230714Y-82638571D01*
X131183095Y-82590952D01*
X131087857Y-82543333D01*
X130849761Y-82543333D01*
X130754523Y-82590952D01*
X130706904Y-82638571D01*
X130659285Y-82733809D01*
X130659285Y-82971904D01*
X130706904Y-83067142D01*
X130754523Y-83114761D01*
X130849761Y-83162380D01*
X131087857Y-83162380D01*
X131183095Y-83114761D01*
X131230714Y-83067142D01*
%TO.C,R8*%
X143676666Y-93002380D02*
X144010000Y-92526190D01*
X144248095Y-93002380D02*
X144248095Y-92002380D01*
X143867142Y-92002380D01*
X143771904Y-92050000D01*
X143724285Y-92097619D01*
X143676666Y-92192857D01*
X143676666Y-92335714D01*
X143724285Y-92430952D01*
X143771904Y-92478571D01*
X143867142Y-92526190D01*
X144248095Y-92526190D01*
X143105238Y-92430952D02*
X143200476Y-92383333D01*
X143248095Y-92335714D01*
X143295714Y-92240476D01*
X143295714Y-92192857D01*
X143248095Y-92097619D01*
X143200476Y-92050000D01*
X143105238Y-92002380D01*
X142914761Y-92002380D01*
X142819523Y-92050000D01*
X142771904Y-92097619D01*
X142724285Y-92192857D01*
X142724285Y-92240476D01*
X142771904Y-92335714D01*
X142819523Y-92383333D01*
X142914761Y-92430952D01*
X143105238Y-92430952D01*
X143200476Y-92478571D01*
X143248095Y-92526190D01*
X143295714Y-92621428D01*
X143295714Y-92811904D01*
X143248095Y-92907142D01*
X143200476Y-92954761D01*
X143105238Y-93002380D01*
X142914761Y-93002380D01*
X142819523Y-92954761D01*
X142771904Y-92907142D01*
X142724285Y-92811904D01*
X142724285Y-92621428D01*
X142771904Y-92526190D01*
X142819523Y-92478571D01*
X142914761Y-92430952D01*
%TO.C,U1*%
X118236904Y-88352380D02*
X118236904Y-89161904D01*
X118189285Y-89257142D01*
X118141666Y-89304761D01*
X118046428Y-89352380D01*
X117855952Y-89352380D01*
X117760714Y-89304761D01*
X117713095Y-89257142D01*
X117665476Y-89161904D01*
X117665476Y-88352380D01*
X116665476Y-89352380D02*
X117236904Y-89352380D01*
X116951190Y-89352380D02*
X116951190Y-88352380D01*
X117046428Y-88495238D01*
X117141666Y-88590476D01*
X117236904Y-88638095D01*
%TO.C,C1*%
X151727142Y-101433333D02*
X151774761Y-101385714D01*
X151822380Y-101242857D01*
X151822380Y-101147619D01*
X151774761Y-101004761D01*
X151679523Y-100909523D01*
X151584285Y-100861904D01*
X151393809Y-100814285D01*
X151250952Y-100814285D01*
X151060476Y-100861904D01*
X150965238Y-100909523D01*
X150870000Y-101004761D01*
X150822380Y-101147619D01*
X150822380Y-101242857D01*
X150870000Y-101385714D01*
X150917619Y-101433333D01*
X151822380Y-102385714D02*
X151822380Y-101814285D01*
X151822380Y-102100000D02*
X150822380Y-102100000D01*
X150965238Y-102004761D01*
X151060476Y-101909523D01*
X151108095Y-101814285D01*
%TO.C,R7*%
X140691666Y-76492380D02*
X141025000Y-76016190D01*
X141263095Y-76492380D02*
X141263095Y-75492380D01*
X140882142Y-75492380D01*
X140786904Y-75540000D01*
X140739285Y-75587619D01*
X140691666Y-75682857D01*
X140691666Y-75825714D01*
X140739285Y-75920952D01*
X140786904Y-75968571D01*
X140882142Y-76016190D01*
X141263095Y-76016190D01*
X140358333Y-75492380D02*
X139691666Y-75492380D01*
X140120238Y-76492380D01*
%TO.C,C5*%
X144311666Y-84812142D02*
X144359285Y-84859761D01*
X144502142Y-84907380D01*
X144597380Y-84907380D01*
X144740238Y-84859761D01*
X144835476Y-84764523D01*
X144883095Y-84669285D01*
X144930714Y-84478809D01*
X144930714Y-84335952D01*
X144883095Y-84145476D01*
X144835476Y-84050238D01*
X144740238Y-83955000D01*
X144597380Y-83907380D01*
X144502142Y-83907380D01*
X144359285Y-83955000D01*
X144311666Y-84002619D01*
X143406904Y-83907380D02*
X143883095Y-83907380D01*
X143930714Y-84383571D01*
X143883095Y-84335952D01*
X143787857Y-84288333D01*
X143549761Y-84288333D01*
X143454523Y-84335952D01*
X143406904Y-84383571D01*
X143359285Y-84478809D01*
X143359285Y-84716904D01*
X143406904Y-84812142D01*
X143454523Y-84859761D01*
X143549761Y-84907380D01*
X143787857Y-84907380D01*
X143883095Y-84859761D01*
X143930714Y-84812142D01*
%TO.C,U2*%
X142520000Y-86600000D02*
X142520000Y-91200000D01*
X126745000Y-91200000D02*
X127110000Y-91200000D01*
X127020000Y-86600000D02*
X127020000Y-84775000D01*
X142520000Y-91200000D02*
X142155000Y-91200000D01*
X126720000Y-86600000D02*
X126720000Y-91200000D01*
X126757500Y-86600000D02*
X127032500Y-86600000D01*
X142495000Y-86600000D02*
X142130000Y-86600000D01*
D11*
%TO.C,L1*%
X142639622Y-102160000D02*
X141840378Y-102160000D01*
X142639622Y-101040000D02*
X141840378Y-101040000D01*
%TO.C,C6*%
X131304420Y-79885000D02*
X131585580Y-79885000D01*
X131304420Y-78865000D02*
X131585580Y-78865000D01*
%TO.C,R3*%
X146922258Y-75452500D02*
X146447742Y-75452500D01*
X146922258Y-74407500D02*
X146447742Y-74407500D01*
D12*
%TO.C,J3*%
X155800000Y-80035000D02*
X154650000Y-80035000D01*
X155800000Y-71095000D02*
X155800000Y-80035000D01*
X154650000Y-71095000D02*
X155800000Y-71095000D01*
D11*
%TO.C,C7*%
X114440580Y-92585000D02*
X114159420Y-92585000D01*
X114440580Y-91565000D02*
X114159420Y-91565000D01*
%TO.C,C10*%
X137935580Y-101090000D02*
X137654420Y-101090000D01*
X137935580Y-102110000D02*
X137654420Y-102110000D01*
%TO.C,C3*%
X149350000Y-85230580D02*
X149350000Y-84949420D01*
X150370000Y-85230580D02*
X150370000Y-84949420D01*
%TO.C,C2*%
X149390000Y-93485580D02*
X149390000Y-93204420D01*
X150410000Y-93485580D02*
X150410000Y-93204420D01*
%TO.C,R4*%
X146922258Y-76722500D02*
X146447742Y-76722500D01*
X146922258Y-75677500D02*
X146447742Y-75677500D01*
%TO.C,R1*%
X114062742Y-87742500D02*
X114537258Y-87742500D01*
X114062742Y-88787500D02*
X114537258Y-88787500D01*
%TO.C,C9*%
X140475580Y-94490000D02*
X140194420Y-94490000D01*
X140475580Y-93470000D02*
X140194420Y-93470000D01*
%TO.C,R2*%
X114062742Y-85837500D02*
X114537258Y-85837500D01*
X114062742Y-86882500D02*
X114537258Y-86882500D01*
%TO.C,C4*%
X134760580Y-79885000D02*
X134479420Y-79885000D01*
X134760580Y-78865000D02*
X134479420Y-78865000D01*
%TO.C,R5*%
X131207742Y-81802500D02*
X131682258Y-81802500D01*
X131207742Y-80757500D02*
X131682258Y-80757500D01*
%TO.C,R8*%
X143747258Y-93457500D02*
X143272742Y-93457500D01*
X143747258Y-94502500D02*
X143272742Y-94502500D01*
%TO.C,U1*%
X116215000Y-89535000D02*
X116215000Y-91485000D01*
X116215000Y-89535000D02*
X116215000Y-86085000D01*
X125085000Y-89535000D02*
X125085000Y-87585000D01*
X125085000Y-89535000D02*
X125085000Y-91485000D01*
%TO.C,C1*%
X150450000Y-101740580D02*
X150450000Y-101459420D01*
X149430000Y-101740580D02*
X149430000Y-101459420D01*
%TO.C,R7*%
X140762258Y-76947500D02*
X140287742Y-76947500D01*
X140762258Y-77992500D02*
X140287742Y-77992500D01*
%TO.C,C5*%
X144004420Y-85215000D02*
X144285580Y-85215000D01*
X144004420Y-86235000D02*
X144285580Y-86235000D01*
%TD*%
M02*
