%TF.GenerationSoftware,KiCad,Pcbnew,(6.0.6-0)*%
%TF.CreationDate,2022-10-23T01:51:18+09:00*%
%TF.ProjectId,Subaru,53756261-7275-42e6-9b69-6361645f7063,rev?*%
%TF.SameCoordinates,Original*%
%TF.FileFunction,Legend,Top*%
%TF.FilePolarity,Positive*%
%FSLAX46Y46*%
G04 Gerber Fmt 4.6, Leading zero omitted, Abs format (unit mm)*
G04 Created by KiCad (PCBNEW (6.0.6-0)) date 2022-10-23 01:51:18*
%MOMM*%
%LPD*%
G01*
G04 APERTURE LIST*
%ADD10C,0.150000*%
%ADD11C,0.500000*%
%ADD12C,0.200000*%
%ADD13C,0.120000*%
G04 APERTURE END LIST*
D10*
X109855000Y-83820000D02*
X119380000Y-83820000D01*
X119380000Y-78740000D02*
X119380000Y-83820000D01*
X109855000Y-78740000D02*
X109855000Y-83820000D01*
X109855000Y-85090000D02*
X109855000Y-92710000D01*
X119380000Y-85090000D02*
X109855000Y-85090000D01*
X119380000Y-78740000D02*
X109855000Y-78740000D01*
X109855000Y-92710000D02*
X119380000Y-92710000D01*
X109855000Y-90170000D02*
X119380000Y-90170000D01*
X109855000Y-87630000D02*
X119380000Y-87630000D01*
X119380000Y-92710000D02*
X119380000Y-85090000D01*
X109855000Y-81280000D02*
X119380000Y-81280000D01*
X120183928Y-80869285D02*
X120433928Y-81619285D01*
X120683928Y-80869285D01*
X121326785Y-80905000D02*
X121255357Y-80869285D01*
X121148214Y-80869285D01*
X121041071Y-80905000D01*
X120969642Y-80976428D01*
X120933928Y-81047857D01*
X120898214Y-81190714D01*
X120898214Y-81297857D01*
X120933928Y-81440714D01*
X120969642Y-81512142D01*
X121041071Y-81583571D01*
X121148214Y-81619285D01*
X121219642Y-81619285D01*
X121326785Y-81583571D01*
X121362500Y-81547857D01*
X121362500Y-81297857D01*
X121219642Y-81297857D01*
X121648214Y-81405000D02*
X122005357Y-81405000D01*
X121576785Y-81619285D02*
X121826785Y-80869285D01*
X122076785Y-81619285D01*
X122862500Y-81583571D02*
X122969642Y-81619285D01*
X123148214Y-81619285D01*
X123219642Y-81583571D01*
X123255357Y-81547857D01*
X123291071Y-81476428D01*
X123291071Y-81405000D01*
X123255357Y-81333571D01*
X123219642Y-81297857D01*
X123148214Y-81262142D01*
X123005357Y-81226428D01*
X122933928Y-81190714D01*
X122898214Y-81155000D01*
X122862500Y-81083571D01*
X122862500Y-81012142D01*
X122898214Y-80940714D01*
X122933928Y-80905000D01*
X123005357Y-80869285D01*
X123183928Y-80869285D01*
X123291071Y-80905000D01*
X123755357Y-81262142D02*
X123755357Y-81619285D01*
X123505357Y-80869285D02*
X123755357Y-81262142D01*
X124005357Y-80869285D01*
X124255357Y-81619285D02*
X124255357Y-80869285D01*
X124683928Y-81619285D01*
X124683928Y-80869285D01*
X125469642Y-81547857D02*
X125433928Y-81583571D01*
X125326785Y-81619285D01*
X125255357Y-81619285D01*
X125148214Y-81583571D01*
X125076785Y-81512142D01*
X125041071Y-81440714D01*
X125005357Y-81297857D01*
X125005357Y-81190714D01*
X125041071Y-81047857D01*
X125076785Y-80976428D01*
X125148214Y-80905000D01*
X125255357Y-80869285D01*
X125326785Y-80869285D01*
X125433928Y-80905000D01*
X125469642Y-80940714D01*
X110766071Y-86824285D02*
X110766071Y-86074285D01*
X111051785Y-86074285D01*
X111123214Y-86110000D01*
X111158928Y-86145714D01*
X111194642Y-86217142D01*
X111194642Y-86324285D01*
X111158928Y-86395714D01*
X111123214Y-86431428D01*
X111051785Y-86467142D01*
X110766071Y-86467142D01*
X111944642Y-86752857D02*
X111908928Y-86788571D01*
X111801785Y-86824285D01*
X111730357Y-86824285D01*
X111623214Y-86788571D01*
X111551785Y-86717142D01*
X111516071Y-86645714D01*
X111480357Y-86502857D01*
X111480357Y-86395714D01*
X111516071Y-86252857D01*
X111551785Y-86181428D01*
X111623214Y-86110000D01*
X111730357Y-86074285D01*
X111801785Y-86074285D01*
X111908928Y-86110000D01*
X111944642Y-86145714D01*
X112373214Y-86395714D02*
X112301785Y-86360000D01*
X112266071Y-86324285D01*
X112230357Y-86252857D01*
X112230357Y-86217142D01*
X112266071Y-86145714D01*
X112301785Y-86110000D01*
X112373214Y-86074285D01*
X112516071Y-86074285D01*
X112587500Y-86110000D01*
X112623214Y-86145714D01*
X112658928Y-86217142D01*
X112658928Y-86252857D01*
X112623214Y-86324285D01*
X112587500Y-86360000D01*
X112516071Y-86395714D01*
X112373214Y-86395714D01*
X112301785Y-86431428D01*
X112266071Y-86467142D01*
X112230357Y-86538571D01*
X112230357Y-86681428D01*
X112266071Y-86752857D01*
X112301785Y-86788571D01*
X112373214Y-86824285D01*
X112516071Y-86824285D01*
X112587500Y-86788571D01*
X112623214Y-86752857D01*
X112658928Y-86681428D01*
X112658928Y-86538571D01*
X112623214Y-86467142D01*
X112587500Y-86431428D01*
X112516071Y-86395714D01*
X113087500Y-86395714D02*
X113016071Y-86360000D01*
X112980357Y-86324285D01*
X112944642Y-86252857D01*
X112944642Y-86217142D01*
X112980357Y-86145714D01*
X113016071Y-86110000D01*
X113087500Y-86074285D01*
X113230357Y-86074285D01*
X113301785Y-86110000D01*
X113337500Y-86145714D01*
X113373214Y-86217142D01*
X113373214Y-86252857D01*
X113337500Y-86324285D01*
X113301785Y-86360000D01*
X113230357Y-86395714D01*
X113087500Y-86395714D01*
X113016071Y-86431428D01*
X112980357Y-86467142D01*
X112944642Y-86538571D01*
X112944642Y-86681428D01*
X112980357Y-86752857D01*
X113016071Y-86788571D01*
X113087500Y-86824285D01*
X113230357Y-86824285D01*
X113301785Y-86788571D01*
X113337500Y-86752857D01*
X113373214Y-86681428D01*
X113373214Y-86538571D01*
X113337500Y-86467142D01*
X113301785Y-86431428D01*
X113230357Y-86395714D01*
X114230357Y-86038571D02*
X113587500Y-87002857D01*
X114516071Y-86824285D02*
X114658928Y-86824285D01*
X114730357Y-86788571D01*
X114766071Y-86752857D01*
X114837500Y-86645714D01*
X114873214Y-86502857D01*
X114873214Y-86217142D01*
X114837500Y-86145714D01*
X114801785Y-86110000D01*
X114730357Y-86074285D01*
X114587500Y-86074285D01*
X114516071Y-86110000D01*
X114480357Y-86145714D01*
X114444642Y-86217142D01*
X114444642Y-86395714D01*
X114480357Y-86467142D01*
X114516071Y-86502857D01*
X114587500Y-86538571D01*
X114730357Y-86538571D01*
X114801785Y-86502857D01*
X114837500Y-86467142D01*
X114873214Y-86395714D01*
X115301785Y-86395714D02*
X115230357Y-86360000D01*
X115194642Y-86324285D01*
X115158928Y-86252857D01*
X115158928Y-86217142D01*
X115194642Y-86145714D01*
X115230357Y-86110000D01*
X115301785Y-86074285D01*
X115444642Y-86074285D01*
X115516071Y-86110000D01*
X115551785Y-86145714D01*
X115587500Y-86217142D01*
X115587500Y-86252857D01*
X115551785Y-86324285D01*
X115516071Y-86360000D01*
X115444642Y-86395714D01*
X115301785Y-86395714D01*
X115230357Y-86431428D01*
X115194642Y-86467142D01*
X115158928Y-86538571D01*
X115158928Y-86681428D01*
X115194642Y-86752857D01*
X115230357Y-86788571D01*
X115301785Y-86824285D01*
X115444642Y-86824285D01*
X115516071Y-86788571D01*
X115551785Y-86752857D01*
X115587500Y-86681428D01*
X115587500Y-86538571D01*
X115551785Y-86467142D01*
X115516071Y-86431428D01*
X115444642Y-86395714D01*
X110766071Y-89239285D02*
X110766071Y-88489285D01*
X111051785Y-88489285D01*
X111123214Y-88525000D01*
X111158928Y-88560714D01*
X111194642Y-88632142D01*
X111194642Y-88739285D01*
X111158928Y-88810714D01*
X111123214Y-88846428D01*
X111051785Y-88882142D01*
X110766071Y-88882142D01*
X111944642Y-89167857D02*
X111908928Y-89203571D01*
X111801785Y-89239285D01*
X111730357Y-89239285D01*
X111623214Y-89203571D01*
X111551785Y-89132142D01*
X111516071Y-89060714D01*
X111480357Y-88917857D01*
X111480357Y-88810714D01*
X111516071Y-88667857D01*
X111551785Y-88596428D01*
X111623214Y-88525000D01*
X111730357Y-88489285D01*
X111801785Y-88489285D01*
X111908928Y-88525000D01*
X111944642Y-88560714D01*
X112373214Y-88810714D02*
X112301785Y-88775000D01*
X112266071Y-88739285D01*
X112230357Y-88667857D01*
X112230357Y-88632142D01*
X112266071Y-88560714D01*
X112301785Y-88525000D01*
X112373214Y-88489285D01*
X112516071Y-88489285D01*
X112587500Y-88525000D01*
X112623214Y-88560714D01*
X112658928Y-88632142D01*
X112658928Y-88667857D01*
X112623214Y-88739285D01*
X112587500Y-88775000D01*
X112516071Y-88810714D01*
X112373214Y-88810714D01*
X112301785Y-88846428D01*
X112266071Y-88882142D01*
X112230357Y-88953571D01*
X112230357Y-89096428D01*
X112266071Y-89167857D01*
X112301785Y-89203571D01*
X112373214Y-89239285D01*
X112516071Y-89239285D01*
X112587500Y-89203571D01*
X112623214Y-89167857D01*
X112658928Y-89096428D01*
X112658928Y-88953571D01*
X112623214Y-88882142D01*
X112587500Y-88846428D01*
X112516071Y-88810714D01*
X113087500Y-88810714D02*
X113016071Y-88775000D01*
X112980357Y-88739285D01*
X112944642Y-88667857D01*
X112944642Y-88632142D01*
X112980357Y-88560714D01*
X113016071Y-88525000D01*
X113087500Y-88489285D01*
X113230357Y-88489285D01*
X113301785Y-88525000D01*
X113337500Y-88560714D01*
X113373214Y-88632142D01*
X113373214Y-88667857D01*
X113337500Y-88739285D01*
X113301785Y-88775000D01*
X113230357Y-88810714D01*
X113087500Y-88810714D01*
X113016071Y-88846428D01*
X112980357Y-88882142D01*
X112944642Y-88953571D01*
X112944642Y-89096428D01*
X112980357Y-89167857D01*
X113016071Y-89203571D01*
X113087500Y-89239285D01*
X113230357Y-89239285D01*
X113301785Y-89203571D01*
X113337500Y-89167857D01*
X113373214Y-89096428D01*
X113373214Y-88953571D01*
X113337500Y-88882142D01*
X113301785Y-88846428D01*
X113230357Y-88810714D01*
X114230357Y-88453571D02*
X113587500Y-89417857D01*
X114516071Y-89239285D02*
X114658928Y-89239285D01*
X114730357Y-89203571D01*
X114766071Y-89167857D01*
X114837500Y-89060714D01*
X114873214Y-88917857D01*
X114873214Y-88632142D01*
X114837500Y-88560714D01*
X114801785Y-88525000D01*
X114730357Y-88489285D01*
X114587500Y-88489285D01*
X114516071Y-88525000D01*
X114480357Y-88560714D01*
X114444642Y-88632142D01*
X114444642Y-88810714D01*
X114480357Y-88882142D01*
X114516071Y-88917857D01*
X114587500Y-88953571D01*
X114730357Y-88953571D01*
X114801785Y-88917857D01*
X114837500Y-88882142D01*
X114873214Y-88810714D01*
X115301785Y-88810714D02*
X115230357Y-88775000D01*
X115194642Y-88739285D01*
X115158928Y-88667857D01*
X115158928Y-88632142D01*
X115194642Y-88560714D01*
X115230357Y-88525000D01*
X115301785Y-88489285D01*
X115444642Y-88489285D01*
X115516071Y-88525000D01*
X115551785Y-88560714D01*
X115587500Y-88632142D01*
X115587500Y-88667857D01*
X115551785Y-88739285D01*
X115516071Y-88775000D01*
X115444642Y-88810714D01*
X115301785Y-88810714D01*
X115230357Y-88846428D01*
X115194642Y-88882142D01*
X115158928Y-88953571D01*
X115158928Y-89096428D01*
X115194642Y-89167857D01*
X115230357Y-89203571D01*
X115301785Y-89239285D01*
X115444642Y-89239285D01*
X115516071Y-89203571D01*
X115551785Y-89167857D01*
X115587500Y-89096428D01*
X115587500Y-88953571D01*
X115551785Y-88882142D01*
X115516071Y-88846428D01*
X115444642Y-88810714D01*
X116444642Y-88453571D02*
X115801785Y-89417857D01*
X116623214Y-88489285D02*
X117123214Y-89239285D01*
X117123214Y-88489285D02*
X116623214Y-89239285D01*
X117730357Y-88489285D02*
X117587500Y-88489285D01*
X117516071Y-88525000D01*
X117480357Y-88560714D01*
X117408928Y-88667857D01*
X117373214Y-88810714D01*
X117373214Y-89096428D01*
X117408928Y-89167857D01*
X117444642Y-89203571D01*
X117516071Y-89239285D01*
X117658928Y-89239285D01*
X117730357Y-89203571D01*
X117766071Y-89167857D01*
X117801785Y-89096428D01*
X117801785Y-88917857D01*
X117766071Y-88846428D01*
X117730357Y-88810714D01*
X117658928Y-88775000D01*
X117516071Y-88775000D01*
X117444642Y-88810714D01*
X117408928Y-88846428D01*
X117373214Y-88917857D01*
X118230357Y-88810714D02*
X118158928Y-88775000D01*
X118123214Y-88739285D01*
X118087500Y-88667857D01*
X118087500Y-88632142D01*
X118123214Y-88560714D01*
X118158928Y-88525000D01*
X118230357Y-88489285D01*
X118373214Y-88489285D01*
X118444642Y-88525000D01*
X118480357Y-88560714D01*
X118516071Y-88632142D01*
X118516071Y-88667857D01*
X118480357Y-88739285D01*
X118444642Y-88775000D01*
X118373214Y-88810714D01*
X118230357Y-88810714D01*
X118158928Y-88846428D01*
X118123214Y-88882142D01*
X118087500Y-88953571D01*
X118087500Y-89096428D01*
X118123214Y-89167857D01*
X118158928Y-89203571D01*
X118230357Y-89239285D01*
X118373214Y-89239285D01*
X118444642Y-89203571D01*
X118480357Y-89167857D01*
X118516071Y-89096428D01*
X118516071Y-88953571D01*
X118480357Y-88882142D01*
X118444642Y-88846428D01*
X118373214Y-88810714D01*
X111016071Y-91261428D02*
X110766071Y-91261428D01*
X110766071Y-91654285D02*
X110766071Y-90904285D01*
X111123214Y-90904285D01*
X111408928Y-91654285D02*
X111408928Y-90904285D01*
X111658928Y-91440000D01*
X111908928Y-90904285D01*
X111908928Y-91654285D01*
X112266071Y-91368571D02*
X112837500Y-91368571D01*
X113087500Y-90904285D02*
X113516071Y-90904285D01*
X113301785Y-91654285D02*
X113301785Y-90904285D01*
X113908928Y-90904285D02*
X114051785Y-90904285D01*
X114123214Y-90940000D01*
X114194642Y-91011428D01*
X114230357Y-91154285D01*
X114230357Y-91404285D01*
X114194642Y-91547142D01*
X114123214Y-91618571D01*
X114051785Y-91654285D01*
X113908928Y-91654285D01*
X113837500Y-91618571D01*
X113766071Y-91547142D01*
X113730357Y-91404285D01*
X113730357Y-91154285D01*
X113766071Y-91011428D01*
X113837500Y-90940000D01*
X113908928Y-90904285D01*
X114480357Y-90904285D02*
X114658928Y-91654285D01*
X114801785Y-91118571D01*
X114944642Y-91654285D01*
X115123214Y-90904285D01*
X115408928Y-91654285D02*
X115408928Y-90904285D01*
X115837500Y-91654285D01*
X115837500Y-90904285D01*
X116158928Y-91618571D02*
X116266071Y-91654285D01*
X116444642Y-91654285D01*
X116516071Y-91618571D01*
X116551785Y-91582857D01*
X116587500Y-91511428D01*
X116587500Y-91440000D01*
X116551785Y-91368571D01*
X116516071Y-91332857D01*
X116444642Y-91297142D01*
X116301785Y-91261428D01*
X116230357Y-91225714D01*
X116194642Y-91190000D01*
X116158928Y-91118571D01*
X116158928Y-91047142D01*
X116194642Y-90975714D01*
X116230357Y-90940000D01*
X116301785Y-90904285D01*
X116480357Y-90904285D01*
X116587500Y-90940000D01*
D11*
X131561307Y-88641904D02*
X131903569Y-88760952D01*
X132498807Y-88760952D01*
X132751783Y-88641904D01*
X132885712Y-88522857D01*
X133034521Y-88284761D01*
X133064283Y-88046666D01*
X132974998Y-87808571D01*
X132870831Y-87689523D01*
X132647617Y-87570476D01*
X132186307Y-87451428D01*
X131963093Y-87332380D01*
X131858926Y-87213333D01*
X131769640Y-86975238D01*
X131799402Y-86737142D01*
X131948212Y-86499047D01*
X132082140Y-86380000D01*
X132335117Y-86260952D01*
X132930355Y-86260952D01*
X133272617Y-86380000D01*
X135326188Y-87094285D02*
X135117855Y-88760952D01*
X134254760Y-87094285D02*
X134091069Y-88403809D01*
X134180355Y-88641904D01*
X134403569Y-88760952D01*
X134760712Y-88760952D01*
X135013688Y-88641904D01*
X135147617Y-88522857D01*
X136308331Y-88760952D02*
X136620831Y-86260952D01*
X136501783Y-87213333D02*
X136754760Y-87094285D01*
X137230950Y-87094285D01*
X137454164Y-87213333D01*
X137558331Y-87332380D01*
X137647617Y-87570476D01*
X137558331Y-88284761D01*
X137409521Y-88522857D01*
X137275593Y-88641904D01*
X137022617Y-88760952D01*
X136546426Y-88760952D01*
X136323212Y-88641904D01*
X139641664Y-88760952D02*
X139805355Y-87451428D01*
X139716069Y-87213333D01*
X139492855Y-87094285D01*
X139016664Y-87094285D01*
X138763688Y-87213333D01*
X139656545Y-88641904D02*
X139403569Y-88760952D01*
X138808331Y-88760952D01*
X138585117Y-88641904D01*
X138495831Y-88403809D01*
X138525593Y-88165714D01*
X138674402Y-87927619D01*
X138927379Y-87808571D01*
X139522617Y-87808571D01*
X139775593Y-87689523D01*
X140832140Y-88760952D02*
X141040474Y-87094285D01*
X140980950Y-87570476D02*
X141129760Y-87332380D01*
X141263688Y-87213333D01*
X141516664Y-87094285D01*
X141754760Y-87094285D01*
X143659521Y-87094285D02*
X143451188Y-88760952D01*
X142588093Y-87094285D02*
X142424402Y-88403809D01*
X142513688Y-88641904D01*
X142736902Y-88760952D01*
X143094045Y-88760952D01*
X143347021Y-88641904D01*
X143480950Y-88522857D01*
D10*
X111401071Y-80411785D02*
X111401071Y-79661785D01*
X111401071Y-80018928D02*
X111829642Y-80018928D01*
X111829642Y-80411785D02*
X111829642Y-79661785D01*
X112722500Y-79626071D02*
X112079642Y-80590357D01*
X112865357Y-79661785D02*
X113115357Y-80411785D01*
X113365357Y-79661785D01*
X113579642Y-80376071D02*
X113686785Y-80411785D01*
X113865357Y-80411785D01*
X113936785Y-80376071D01*
X113972500Y-80340357D01*
X114008214Y-80268928D01*
X114008214Y-80197500D01*
X113972500Y-80126071D01*
X113936785Y-80090357D01*
X113865357Y-80054642D01*
X113722500Y-80018928D01*
X113651071Y-79983214D01*
X113615357Y-79947500D01*
X113579642Y-79876071D01*
X113579642Y-79804642D01*
X113615357Y-79733214D01*
X113651071Y-79697500D01*
X113722500Y-79661785D01*
X113901071Y-79661785D01*
X114008214Y-79697500D01*
X114472500Y-80054642D02*
X114472500Y-80411785D01*
X114222500Y-79661785D02*
X114472500Y-80054642D01*
X114722500Y-79661785D01*
X114972500Y-80411785D02*
X114972500Y-79661785D01*
X115401071Y-80411785D01*
X115401071Y-79661785D01*
X116186785Y-80340357D02*
X116151071Y-80376071D01*
X116043928Y-80411785D01*
X115972500Y-80411785D01*
X115865357Y-80376071D01*
X115793928Y-80304642D01*
X115758214Y-80233214D01*
X115722500Y-80090357D01*
X115722500Y-79983214D01*
X115758214Y-79840357D01*
X115793928Y-79768928D01*
X115865357Y-79697500D01*
X115972500Y-79661785D01*
X116043928Y-79661785D01*
X116151071Y-79697500D01*
X116186785Y-79733214D01*
X111829642Y-82755357D02*
X111793928Y-82791071D01*
X111686785Y-82826785D01*
X111615357Y-82826785D01*
X111508214Y-82791071D01*
X111436785Y-82719642D01*
X111401071Y-82648214D01*
X111365357Y-82505357D01*
X111365357Y-82398214D01*
X111401071Y-82255357D01*
X111436785Y-82183928D01*
X111508214Y-82112500D01*
X111615357Y-82076785D01*
X111686785Y-82076785D01*
X111793928Y-82112500D01*
X111829642Y-82148214D01*
X112115357Y-82791071D02*
X112222500Y-82826785D01*
X112401071Y-82826785D01*
X112472500Y-82791071D01*
X112508214Y-82755357D01*
X112543928Y-82683928D01*
X112543928Y-82612500D01*
X112508214Y-82541071D01*
X112472500Y-82505357D01*
X112401071Y-82469642D01*
X112258214Y-82433928D01*
X112186785Y-82398214D01*
X112151071Y-82362500D01*
X112115357Y-82291071D01*
X112115357Y-82219642D01*
X112151071Y-82148214D01*
X112186785Y-82112500D01*
X112258214Y-82076785D01*
X112436785Y-82076785D01*
X112543928Y-82112500D01*
X113008214Y-82469642D02*
X113008214Y-82826785D01*
X112758214Y-82076785D02*
X113008214Y-82469642D01*
X113258214Y-82076785D01*
X113508214Y-82826785D02*
X113508214Y-82076785D01*
X113936785Y-82826785D01*
X113936785Y-82076785D01*
X114722500Y-82755357D02*
X114686785Y-82791071D01*
X114579642Y-82826785D01*
X114508214Y-82826785D01*
X114401071Y-82791071D01*
X114329642Y-82719642D01*
X114293928Y-82648214D01*
X114258214Y-82505357D01*
X114258214Y-82398214D01*
X114293928Y-82255357D01*
X114329642Y-82183928D01*
X114401071Y-82112500D01*
X114508214Y-82076785D01*
X114579642Y-82076785D01*
X114686785Y-82112500D01*
X114722500Y-82148214D01*
X120255357Y-89025000D02*
X120612500Y-89025000D01*
X120183928Y-89239285D02*
X120433928Y-88489285D01*
X120683928Y-89239285D01*
X120933928Y-88739285D02*
X120933928Y-89239285D01*
X120933928Y-88810714D02*
X120969642Y-88775000D01*
X121041071Y-88739285D01*
X121148214Y-88739285D01*
X121219642Y-88775000D01*
X121255357Y-88846428D01*
X121255357Y-89239285D01*
X121933928Y-89239285D02*
X121933928Y-88846428D01*
X121898214Y-88775000D01*
X121826785Y-88739285D01*
X121683928Y-88739285D01*
X121612500Y-88775000D01*
X121933928Y-89203571D02*
X121862500Y-89239285D01*
X121683928Y-89239285D01*
X121612500Y-89203571D01*
X121576785Y-89132142D01*
X121576785Y-89060714D01*
X121612500Y-88989285D01*
X121683928Y-88953571D01*
X121862500Y-88953571D01*
X121933928Y-88917857D01*
X122398214Y-89239285D02*
X122326785Y-89203571D01*
X122291071Y-89132142D01*
X122291071Y-88489285D01*
X122791071Y-89239285D02*
X122719642Y-89203571D01*
X122683928Y-89167857D01*
X122648214Y-89096428D01*
X122648214Y-88882142D01*
X122683928Y-88810714D01*
X122719642Y-88775000D01*
X122791071Y-88739285D01*
X122898214Y-88739285D01*
X122969642Y-88775000D01*
X123005357Y-88810714D01*
X123041071Y-88882142D01*
X123041071Y-89096428D01*
X123005357Y-89167857D01*
X122969642Y-89203571D01*
X122898214Y-89239285D01*
X122791071Y-89239285D01*
X123683928Y-88739285D02*
X123683928Y-89346428D01*
X123648214Y-89417857D01*
X123612500Y-89453571D01*
X123541071Y-89489285D01*
X123433928Y-89489285D01*
X123362500Y-89453571D01*
X123683928Y-89203571D02*
X123612500Y-89239285D01*
X123469642Y-89239285D01*
X123398214Y-89203571D01*
X123362500Y-89167857D01*
X123326785Y-89096428D01*
X123326785Y-88882142D01*
X123362500Y-88810714D01*
X123398214Y-88775000D01*
X123469642Y-88739285D01*
X123612500Y-88739285D01*
X123683928Y-88775000D01*
X125041071Y-89239285D02*
X124791071Y-88882142D01*
X124612500Y-89239285D02*
X124612500Y-88489285D01*
X124898214Y-88489285D01*
X124969642Y-88525000D01*
X125005357Y-88560714D01*
X125041071Y-88632142D01*
X125041071Y-88739285D01*
X125005357Y-88810714D01*
X124969642Y-88846428D01*
X124898214Y-88882142D01*
X124612500Y-88882142D01*
X125755357Y-88525000D02*
X125683928Y-88489285D01*
X125576785Y-88489285D01*
X125469642Y-88525000D01*
X125398214Y-88596428D01*
X125362500Y-88667857D01*
X125326785Y-88810714D01*
X125326785Y-88917857D01*
X125362500Y-89060714D01*
X125398214Y-89132142D01*
X125469642Y-89203571D01*
X125576785Y-89239285D01*
X125648214Y-89239285D01*
X125755357Y-89203571D01*
X125791071Y-89167857D01*
X125791071Y-88917857D01*
X125648214Y-88917857D01*
X126362500Y-88846428D02*
X126469642Y-88882142D01*
X126505357Y-88917857D01*
X126541071Y-88989285D01*
X126541071Y-89096428D01*
X126505357Y-89167857D01*
X126469642Y-89203571D01*
X126398214Y-89239285D01*
X126112500Y-89239285D01*
X126112500Y-88489285D01*
X126362500Y-88489285D01*
X126433928Y-88525000D01*
X126469642Y-88560714D01*
X126505357Y-88632142D01*
X126505357Y-88703571D01*
X126469642Y-88775000D01*
X126433928Y-88810714D01*
X126362500Y-88846428D01*
X126112500Y-88846428D01*
X127326785Y-88489285D02*
X127755357Y-88489285D01*
X127541071Y-89239285D02*
X127541071Y-88489285D01*
X128148214Y-88882142D02*
X128148214Y-89239285D01*
X127898214Y-88489285D02*
X128148214Y-88882142D01*
X128398214Y-88489285D01*
X128648214Y-89239285D02*
X128648214Y-88489285D01*
X128933928Y-88489285D01*
X129005357Y-88525000D01*
X129041071Y-88560714D01*
X129076785Y-88632142D01*
X129076785Y-88739285D01*
X129041071Y-88810714D01*
X129005357Y-88846428D01*
X128933928Y-88882142D01*
X128648214Y-88882142D01*
X129398214Y-88846428D02*
X129648214Y-88846428D01*
X129755357Y-89239285D02*
X129398214Y-89239285D01*
X129398214Y-88489285D01*
X129755357Y-88489285D01*
D12*
X137246292Y-89622380D02*
X137454626Y-90622380D01*
X137912959Y-89622380D01*
X138508197Y-90574761D02*
X138407007Y-90622380D01*
X138216530Y-90622380D01*
X138127245Y-90574761D01*
X138091530Y-90479523D01*
X138139149Y-90098571D01*
X138198673Y-90003333D01*
X138299864Y-89955714D01*
X138490340Y-89955714D01*
X138579626Y-90003333D01*
X138615340Y-90098571D01*
X138603435Y-90193809D01*
X138115340Y-90289047D01*
X138978435Y-90622380D02*
X139061768Y-89955714D01*
X139037959Y-90146190D02*
X139097483Y-90050952D01*
X139151054Y-90003333D01*
X139252245Y-89955714D01*
X139347483Y-89955714D01*
X140883197Y-90622380D02*
X140311768Y-90622380D01*
X140597483Y-90622380D02*
X140722483Y-89622380D01*
X140609388Y-89765238D01*
X140502245Y-89860476D01*
X140401054Y-89908095D01*
X141323673Y-90527142D02*
X141365340Y-90574761D01*
X141311768Y-90622380D01*
X141270102Y-90574761D01*
X141323673Y-90527142D01*
X141311768Y-90622380D01*
X142103435Y-89622380D02*
X142198673Y-89622380D01*
X142287959Y-89670000D01*
X142329626Y-89717619D01*
X142365340Y-89812857D01*
X142389149Y-90003333D01*
X142359388Y-90241428D01*
X142287959Y-90431904D01*
X142228435Y-90527142D01*
X142174864Y-90574761D01*
X142073673Y-90622380D01*
X141978435Y-90622380D01*
X141889149Y-90574761D01*
X141847483Y-90527142D01*
X141811768Y-90431904D01*
X141787959Y-90241428D01*
X141817721Y-90003333D01*
X141889149Y-89812857D01*
X141948673Y-89717619D01*
X142002245Y-89670000D01*
X142103435Y-89622380D01*
X143055816Y-89622380D02*
X143151054Y-89622380D01*
X143240340Y-89670000D01*
X143282007Y-89717619D01*
X143317721Y-89812857D01*
X143341530Y-90003333D01*
X143311768Y-90241428D01*
X143240340Y-90431904D01*
X143180816Y-90527142D01*
X143127245Y-90574761D01*
X143026054Y-90622380D01*
X142930816Y-90622380D01*
X142841530Y-90574761D01*
X142799864Y-90527142D01*
X142764149Y-90431904D01*
X142740340Y-90241428D01*
X142770102Y-90003333D01*
X142841530Y-89812857D01*
X142901054Y-89717619D01*
X142954626Y-89670000D01*
X143055816Y-89622380D01*
D10*
X123006687Y-91735714D02*
X123046865Y-91700000D01*
X123122758Y-91664285D01*
X123301329Y-91664285D01*
X123368294Y-91700000D01*
X123399544Y-91735714D01*
X123426329Y-91807142D01*
X123417401Y-91878571D01*
X123368294Y-91985714D01*
X122886151Y-92414285D01*
X123350437Y-92414285D01*
X123908472Y-91664285D02*
X123979901Y-91664285D01*
X124046865Y-91700000D01*
X124078115Y-91735714D01*
X124104901Y-91807142D01*
X124122758Y-91950000D01*
X124100437Y-92128571D01*
X124046865Y-92271428D01*
X124002222Y-92342857D01*
X123962044Y-92378571D01*
X123886151Y-92414285D01*
X123814722Y-92414285D01*
X123747758Y-92378571D01*
X123716508Y-92342857D01*
X123689722Y-92271428D01*
X123671865Y-92128571D01*
X123694187Y-91950000D01*
X123747758Y-91807142D01*
X123792401Y-91735714D01*
X123832579Y-91700000D01*
X123908472Y-91664285D01*
X124435258Y-91735714D02*
X124475437Y-91700000D01*
X124551329Y-91664285D01*
X124729901Y-91664285D01*
X124796865Y-91700000D01*
X124828115Y-91735714D01*
X124854901Y-91807142D01*
X124845972Y-91878571D01*
X124796865Y-91985714D01*
X124314722Y-92414285D01*
X124779008Y-92414285D01*
X125149544Y-91735714D02*
X125189722Y-91700000D01*
X125265615Y-91664285D01*
X125444187Y-91664285D01*
X125511151Y-91700000D01*
X125542401Y-91735714D01*
X125569187Y-91807142D01*
X125560258Y-91878571D01*
X125511151Y-91985714D01*
X125029008Y-92414285D01*
X125493294Y-92414285D01*
X125823651Y-92342857D02*
X125854901Y-92378571D01*
X125814722Y-92414285D01*
X125783472Y-92378571D01*
X125823651Y-92342857D01*
X125814722Y-92414285D01*
X126564722Y-92414285D02*
X126136151Y-92414285D01*
X126350437Y-92414285D02*
X126444187Y-91664285D01*
X126359365Y-91771428D01*
X126279008Y-91842857D01*
X126203115Y-91878571D01*
X127122758Y-91664285D02*
X127194187Y-91664285D01*
X127261151Y-91700000D01*
X127292401Y-91735714D01*
X127319187Y-91807142D01*
X127337044Y-91950000D01*
X127314722Y-92128571D01*
X127261151Y-92271428D01*
X127216508Y-92342857D01*
X127176329Y-92378571D01*
X127100437Y-92414285D01*
X127029008Y-92414285D01*
X126962044Y-92378571D01*
X126930794Y-92342857D01*
X126904008Y-92271428D01*
X126886151Y-92128571D01*
X126908472Y-91950000D01*
X126962044Y-91807142D01*
X127006687Y-91735714D01*
X127046865Y-91700000D01*
X127122758Y-91664285D01*
X127609365Y-92342857D02*
X127640615Y-92378571D01*
X127600437Y-92414285D01*
X127569187Y-92378571D01*
X127609365Y-92342857D01*
X127600437Y-92414285D01*
X128006687Y-91735714D02*
X128046865Y-91700000D01*
X128122758Y-91664285D01*
X128301329Y-91664285D01*
X128368294Y-91700000D01*
X128399544Y-91735714D01*
X128426329Y-91807142D01*
X128417401Y-91878571D01*
X128368294Y-91985714D01*
X127886151Y-92414285D01*
X128350437Y-92414285D01*
X128694187Y-91664285D02*
X129158472Y-91664285D01*
X128872758Y-91950000D01*
X128979901Y-91950000D01*
X129046865Y-91985714D01*
X129078115Y-92021428D01*
X129104901Y-92092857D01*
X129082579Y-92271428D01*
X129037937Y-92342857D01*
X128997758Y-92378571D01*
X128921865Y-92414285D01*
X128707579Y-92414285D01*
X128640615Y-92378571D01*
X128609365Y-92342857D01*
X129957579Y-92414285D02*
X130051329Y-91664285D01*
X130229901Y-91664285D01*
X130332579Y-91700000D01*
X130395079Y-91771428D01*
X130421865Y-91842857D01*
X130439722Y-91985714D01*
X130426329Y-92092857D01*
X130372758Y-92235714D01*
X130328115Y-92307142D01*
X130247758Y-92378571D01*
X130136151Y-92414285D01*
X129957579Y-92414285D01*
X130997758Y-92378571D02*
X130921865Y-92414285D01*
X130779008Y-92414285D01*
X130712044Y-92378571D01*
X130685258Y-92307142D01*
X130720972Y-92021428D01*
X130765615Y-91950000D01*
X130841508Y-91914285D01*
X130984365Y-91914285D01*
X131051329Y-91950000D01*
X131078115Y-92021428D01*
X131069187Y-92092857D01*
X130703115Y-92164285D01*
X131319187Y-92378571D02*
X131386151Y-92414285D01*
X131529008Y-92414285D01*
X131604901Y-92378571D01*
X131649544Y-92307142D01*
X131654008Y-92271428D01*
X131627222Y-92200000D01*
X131560258Y-92164285D01*
X131453115Y-92164285D01*
X131386151Y-92128571D01*
X131359365Y-92057142D01*
X131363829Y-92021428D01*
X131408472Y-91950000D01*
X131484365Y-91914285D01*
X131591508Y-91914285D01*
X131658472Y-91950000D01*
X131957579Y-92414285D02*
X132020079Y-91914285D01*
X132051329Y-91664285D02*
X132011151Y-91700000D01*
X132042401Y-91735714D01*
X132082579Y-91700000D01*
X132051329Y-91664285D01*
X132042401Y-91735714D01*
X132698651Y-91914285D02*
X132622758Y-92521428D01*
X132578115Y-92592857D01*
X132537937Y-92628571D01*
X132462044Y-92664285D01*
X132354901Y-92664285D01*
X132287937Y-92628571D01*
X132640615Y-92378571D02*
X132564722Y-92414285D01*
X132421865Y-92414285D01*
X132354901Y-92378571D01*
X132323651Y-92342857D01*
X132296865Y-92271428D01*
X132323651Y-92057142D01*
X132368294Y-91985714D01*
X132408472Y-91950000D01*
X132484365Y-91914285D01*
X132627222Y-91914285D01*
X132694187Y-91950000D01*
X133055794Y-91914285D02*
X132993294Y-92414285D01*
X133046865Y-91985714D02*
X133087044Y-91950000D01*
X133162937Y-91914285D01*
X133270079Y-91914285D01*
X133337044Y-91950000D01*
X133363829Y-92021428D01*
X133314722Y-92414285D01*
X133962044Y-92378571D02*
X133886151Y-92414285D01*
X133743294Y-92414285D01*
X133676329Y-92378571D01*
X133649544Y-92307142D01*
X133685258Y-92021428D01*
X133729901Y-91950000D01*
X133805794Y-91914285D01*
X133948651Y-91914285D01*
X134015615Y-91950000D01*
X134042401Y-92021428D01*
X134033472Y-92092857D01*
X133667401Y-92164285D01*
X134636151Y-92414285D02*
X134729901Y-91664285D01*
X134640615Y-92378571D02*
X134564722Y-92414285D01*
X134421865Y-92414285D01*
X134354901Y-92378571D01*
X134323651Y-92342857D01*
X134296865Y-92271428D01*
X134323651Y-92057142D01*
X134368294Y-91985714D01*
X134408472Y-91950000D01*
X134484365Y-91914285D01*
X134627222Y-91914285D01*
X134694187Y-91950000D01*
X135564722Y-92414285D02*
X135658472Y-91664285D01*
X135622758Y-91950000D02*
X135698651Y-91914285D01*
X135841508Y-91914285D01*
X135908472Y-91950000D01*
X135939722Y-91985714D01*
X135966508Y-92057142D01*
X135939722Y-92271428D01*
X135895079Y-92342857D01*
X135854901Y-92378571D01*
X135779008Y-92414285D01*
X135636151Y-92414285D01*
X135569187Y-92378571D01*
X136234365Y-91914285D02*
X136350437Y-92414285D01*
X136591508Y-91914285D02*
X136350437Y-92414285D01*
X136256687Y-92592857D01*
X136216508Y-92628571D01*
X136140615Y-92664285D01*
X137386151Y-92414285D02*
X137479901Y-91664285D01*
X137662937Y-92200000D01*
X137979901Y-91664285D01*
X137886151Y-92414285D01*
X138533472Y-92378571D02*
X138457579Y-92414285D01*
X138314722Y-92414285D01*
X138247758Y-92378571D01*
X138220972Y-92307142D01*
X138256687Y-92021428D01*
X138301329Y-91950000D01*
X138377222Y-91914285D01*
X138520079Y-91914285D01*
X138587044Y-91950000D01*
X138613829Y-92021428D01*
X138604901Y-92092857D01*
X138238829Y-92164285D01*
X138993294Y-92414285D02*
X138926329Y-92378571D01*
X138899544Y-92307142D01*
X138979901Y-91664285D01*
X139386151Y-92414285D02*
X139319187Y-92378571D01*
X139292401Y-92307142D01*
X139372758Y-91664285D01*
X139779008Y-92414285D02*
X139712044Y-92378571D01*
X139680794Y-92342857D01*
X139654008Y-92271428D01*
X139680794Y-92057142D01*
X139725437Y-91985714D01*
X139765615Y-91950000D01*
X139841508Y-91914285D01*
X139948651Y-91914285D01*
X140015615Y-91950000D01*
X140046865Y-91985714D01*
X140073651Y-92057142D01*
X140046865Y-92271428D01*
X140002222Y-92342857D01*
X139962044Y-92378571D01*
X139886151Y-92414285D01*
X139779008Y-92414285D01*
X140341508Y-91914285D02*
X140421865Y-92414285D01*
X140609365Y-92057142D01*
X140707579Y-92414285D01*
X140912937Y-91914285D01*
X141707579Y-92414285D02*
X141801329Y-91664285D01*
X142087044Y-91664285D01*
X142154008Y-91700000D01*
X142185258Y-91735714D01*
X142212044Y-91807142D01*
X142198651Y-91914285D01*
X142154008Y-91985714D01*
X142113829Y-92021428D01*
X142037937Y-92057142D01*
X141752222Y-92057142D01*
X142895079Y-92342857D02*
X142854901Y-92378571D01*
X142743294Y-92414285D01*
X142671865Y-92414285D01*
X142569187Y-92378571D01*
X142506687Y-92307142D01*
X142479901Y-92235714D01*
X142462044Y-92092857D01*
X142475437Y-91985714D01*
X142529008Y-91842857D01*
X142573651Y-91771428D01*
X142654008Y-91700000D01*
X142765615Y-91664285D01*
X142837044Y-91664285D01*
X142939722Y-91700000D01*
X142970972Y-91735714D01*
X143506687Y-92021428D02*
X143609365Y-92057142D01*
X143640615Y-92092857D01*
X143667401Y-92164285D01*
X143654008Y-92271428D01*
X143609365Y-92342857D01*
X143569187Y-92378571D01*
X143493294Y-92414285D01*
X143207579Y-92414285D01*
X143301329Y-91664285D01*
X143551329Y-91664285D01*
X143618294Y-91700000D01*
X143649544Y-91735714D01*
X143676329Y-91807142D01*
X143667401Y-91878571D01*
X143622758Y-91950000D01*
X143582579Y-91985714D01*
X143506687Y-92021428D01*
X143256687Y-92021428D01*
%TO.C,RV2*%
X152892380Y-93940238D02*
X152416190Y-94273571D01*
X152892380Y-94511666D02*
X151892380Y-94511666D01*
X151892380Y-94130714D01*
X151940000Y-94035476D01*
X151987619Y-93987857D01*
X152082857Y-93940238D01*
X152225714Y-93940238D01*
X152320952Y-93987857D01*
X152368571Y-94035476D01*
X152416190Y-94130714D01*
X152416190Y-94511666D01*
X151892380Y-93654523D02*
X152892380Y-93321190D01*
X151892380Y-92987857D01*
X151987619Y-92702142D02*
X151940000Y-92654523D01*
X151892380Y-92559285D01*
X151892380Y-92321190D01*
X151940000Y-92225952D01*
X151987619Y-92178333D01*
X152082857Y-92130714D01*
X152178095Y-92130714D01*
X152320952Y-92178333D01*
X152892380Y-92749761D01*
X152892380Y-92130714D01*
%TO.C,J7*%
X119061666Y-67947049D02*
X119061666Y-68661335D01*
X119014047Y-68804192D01*
X118918809Y-68899430D01*
X118775952Y-68947049D01*
X118680714Y-68947049D01*
X119442619Y-67947049D02*
X120109285Y-67947049D01*
X119680714Y-68947049D01*
%TO.C,RV3*%
X152892380Y-85685238D02*
X152416190Y-86018571D01*
X152892380Y-86256666D02*
X151892380Y-86256666D01*
X151892380Y-85875714D01*
X151940000Y-85780476D01*
X151987619Y-85732857D01*
X152082857Y-85685238D01*
X152225714Y-85685238D01*
X152320952Y-85732857D01*
X152368571Y-85780476D01*
X152416190Y-85875714D01*
X152416190Y-86256666D01*
X151892380Y-85399523D02*
X152892380Y-85066190D01*
X151892380Y-84732857D01*
X151892380Y-84494761D02*
X151892380Y-83875714D01*
X152273333Y-84209047D01*
X152273333Y-84066190D01*
X152320952Y-83970952D01*
X152368571Y-83923333D01*
X152463809Y-83875714D01*
X152701904Y-83875714D01*
X152797142Y-83923333D01*
X152844761Y-83970952D01*
X152892380Y-84066190D01*
X152892380Y-84351904D01*
X152844761Y-84447142D01*
X152797142Y-84494761D01*
%TO.C,J5*%
X143176666Y-71757080D02*
X143176666Y-72471366D01*
X143129047Y-72614223D01*
X143033809Y-72709461D01*
X142890952Y-72757080D01*
X142795714Y-72757080D01*
X144129047Y-71757080D02*
X143652857Y-71757080D01*
X143605238Y-72233271D01*
X143652857Y-72185652D01*
X143748095Y-72138033D01*
X143986190Y-72138033D01*
X144081428Y-72185652D01*
X144129047Y-72233271D01*
X144176666Y-72328509D01*
X144176666Y-72566604D01*
X144129047Y-72661842D01*
X144081428Y-72709461D01*
X143986190Y-72757080D01*
X143748095Y-72757080D01*
X143652857Y-72709461D01*
X143605238Y-72661842D01*
%TO.C,J2*%
X106346666Y-87082380D02*
X106346666Y-87796666D01*
X106299047Y-87939523D01*
X106203809Y-88034761D01*
X106060952Y-88082380D01*
X105965714Y-88082380D01*
X106775238Y-87177619D02*
X106822857Y-87130000D01*
X106918095Y-87082380D01*
X107156190Y-87082380D01*
X107251428Y-87130000D01*
X107299047Y-87177619D01*
X107346666Y-87272857D01*
X107346666Y-87368095D01*
X107299047Y-87510952D01*
X106727619Y-88082380D01*
X107346666Y-88082380D01*
%TO.C,C8*%
X142708321Y-80367142D02*
X142660702Y-80414761D01*
X142517845Y-80462380D01*
X142422607Y-80462380D01*
X142279749Y-80414761D01*
X142184511Y-80319523D01*
X142136892Y-80224285D01*
X142089273Y-80033809D01*
X142089273Y-79890952D01*
X142136892Y-79700476D01*
X142184511Y-79605238D01*
X142279749Y-79510000D01*
X142422607Y-79462380D01*
X142517845Y-79462380D01*
X142660702Y-79510000D01*
X142708321Y-79557619D01*
X143279749Y-79890952D02*
X143184511Y-79843333D01*
X143136892Y-79795714D01*
X143089273Y-79700476D01*
X143089273Y-79652857D01*
X143136892Y-79557619D01*
X143184511Y-79510000D01*
X143279749Y-79462380D01*
X143470226Y-79462380D01*
X143565464Y-79510000D01*
X143613083Y-79557619D01*
X143660702Y-79652857D01*
X143660702Y-79700476D01*
X143613083Y-79795714D01*
X143565464Y-79843333D01*
X143470226Y-79890952D01*
X143279749Y-79890952D01*
X143184511Y-79938571D01*
X143136892Y-79986190D01*
X143089273Y-80081428D01*
X143089273Y-80271904D01*
X143136892Y-80367142D01*
X143184511Y-80414761D01*
X143279749Y-80462380D01*
X143470226Y-80462380D01*
X143565464Y-80414761D01*
X143613083Y-80367142D01*
X143660702Y-80271904D01*
X143660702Y-80081428D01*
X143613083Y-79986190D01*
X143565464Y-79938571D01*
X143470226Y-79890952D01*
%TO.C,J4*%
X106341666Y-81367380D02*
X106341666Y-82081666D01*
X106294047Y-82224523D01*
X106198809Y-82319761D01*
X106055952Y-82367380D01*
X105960714Y-82367380D01*
X107246428Y-81700714D02*
X107246428Y-82367380D01*
X107008333Y-81319761D02*
X106770238Y-82034047D01*
X107389285Y-82034047D01*
%TO.C,Y1*%
X131068809Y-81256190D02*
X131068809Y-81732380D01*
X130735476Y-80732380D02*
X131068809Y-81256190D01*
X131402142Y-80732380D01*
X132259285Y-81732380D02*
X131687857Y-81732380D01*
X131973571Y-81732380D02*
X131973571Y-80732380D01*
X131878333Y-80875238D01*
X131783095Y-80970476D01*
X131687857Y-81018095D01*
%TO.C,J1*%
X125416666Y-94067411D02*
X125416666Y-94781697D01*
X125369047Y-94924554D01*
X125273809Y-95019792D01*
X125130952Y-95067411D01*
X125035714Y-95067411D01*
X126416666Y-95067411D02*
X125845238Y-95067411D01*
X126130952Y-95067411D02*
X126130952Y-94067411D01*
X126035714Y-94210269D01*
X125940476Y-94305507D01*
X125845238Y-94353126D01*
%TO.C,RV1*%
X152932380Y-102195238D02*
X152456190Y-102528571D01*
X152932380Y-102766666D02*
X151932380Y-102766666D01*
X151932380Y-102385714D01*
X151980000Y-102290476D01*
X152027619Y-102242857D01*
X152122857Y-102195238D01*
X152265714Y-102195238D01*
X152360952Y-102242857D01*
X152408571Y-102290476D01*
X152456190Y-102385714D01*
X152456190Y-102766666D01*
X151932380Y-101909523D02*
X152932380Y-101576190D01*
X151932380Y-101242857D01*
X152932380Y-100385714D02*
X152932380Y-100957142D01*
X152932380Y-100671428D02*
X151932380Y-100671428D01*
X152075238Y-100766666D01*
X152170476Y-100861904D01*
X152218095Y-100957142D01*
%TO.C,RV2*%
X149900000Y-94345000D02*
X149900000Y-92345000D01*
X148900000Y-93345000D02*
X150900000Y-93345000D01*
D13*
%TO.C,J7*%
X134880000Y-62230000D02*
X134880000Y-77840000D01*
X114830000Y-78734338D02*
X115080000Y-78301325D01*
X134880000Y-62230000D02*
X103910000Y-62230000D01*
X134880000Y-77840000D02*
X103910000Y-77840000D01*
X103910000Y-77840000D02*
X103910000Y-62230000D01*
X115330000Y-78734338D02*
X114830000Y-78734338D01*
X115080000Y-78301325D02*
X115330000Y-78734338D01*
D10*
%TO.C,RV3*%
X149900000Y-86090000D02*
X149900000Y-84090000D01*
X148900000Y-85090000D02*
X150900000Y-85090000D01*
%TO.C,J5*%
X150510000Y-62244700D02*
X150510000Y-74744700D01*
X136510000Y-62244700D02*
X136510000Y-74744700D01*
X136510000Y-74744700D02*
X150510000Y-74744700D01*
X136510000Y-62244700D02*
X150510000Y-62244700D01*
D13*
%TO.C,J2*%
X104080000Y-87630000D02*
X106680000Y-87630000D01*
X104080000Y-85030000D02*
X105410000Y-85030000D01*
X106680000Y-87630000D02*
X106680000Y-85030000D01*
X106680000Y-85030000D02*
X109280000Y-85030000D01*
X104080000Y-92770000D02*
X109280000Y-92770000D01*
X104080000Y-87630000D02*
X104080000Y-92770000D01*
X104080000Y-86360000D02*
X104080000Y-85030000D01*
X109280000Y-85030000D02*
X109280000Y-92770000D01*
%TO.C,C8*%
X140359100Y-84205000D02*
X140359100Y-82955000D01*
X140479100Y-80875000D02*
X140479100Y-79567000D01*
X139959100Y-83950000D02*
X139959100Y-82955000D01*
X139079100Y-82720000D02*
X139079100Y-81110000D01*
X140199100Y-80875000D02*
X140199100Y-79715000D01*
X141120100Y-80875000D02*
X141120100Y-79372000D01*
X141520100Y-84495000D02*
X141520100Y-79335000D01*
X140399100Y-80875000D02*
X140399100Y-79605000D01*
X140319100Y-80875000D02*
X140319100Y-79647000D01*
X139919100Y-80875000D02*
X139919100Y-79911000D01*
X139799100Y-83816000D02*
X139799100Y-82955000D01*
X140599100Y-84313000D02*
X140599100Y-82955000D01*
X141080100Y-80875000D02*
X141080100Y-79379000D01*
X140839100Y-80875000D02*
X140839100Y-79435000D01*
X140880100Y-80875000D02*
X140880100Y-79424000D01*
X139879100Y-83886000D02*
X139879100Y-82955000D01*
X139199100Y-83013000D02*
X139199100Y-80817000D01*
X139359100Y-83298000D02*
X139359100Y-82955000D01*
X140359100Y-80875000D02*
X140359100Y-79625000D01*
X141160100Y-84465000D02*
X141160100Y-82955000D01*
X139599100Y-83614000D02*
X139599100Y-82955000D01*
X141200100Y-80875000D02*
X141200100Y-79359000D01*
X141440100Y-84493000D02*
X141440100Y-79337000D01*
X139399100Y-80875000D02*
X139399100Y-80472000D01*
X140559100Y-84297000D02*
X140559100Y-82955000D01*
X139319100Y-83234000D02*
X139319100Y-82955000D01*
X139839100Y-83852000D02*
X139839100Y-82955000D01*
X140439100Y-84244000D02*
X140439100Y-82955000D01*
X141040100Y-84443000D02*
X141040100Y-82955000D01*
X139479100Y-80875000D02*
X139479100Y-80361000D01*
X140399100Y-84225000D02*
X140399100Y-82955000D01*
X139799100Y-80875000D02*
X139799100Y-80014000D01*
X141200100Y-84471000D02*
X141200100Y-82955000D01*
X139639100Y-80875000D02*
X139639100Y-80172000D01*
X140079100Y-84037000D02*
X140079100Y-82955000D01*
X141080100Y-84451000D02*
X141080100Y-82955000D01*
X139679100Y-80875000D02*
X139679100Y-80130000D01*
X141000100Y-84435000D02*
X141000100Y-82955000D01*
X140639100Y-80875000D02*
X140639100Y-79501000D01*
X139119100Y-82830000D02*
X139119100Y-81000000D01*
X139239100Y-83093000D02*
X139239100Y-80737000D01*
X141480100Y-84494000D02*
X141480100Y-79336000D01*
X140639100Y-84329000D02*
X140639100Y-82955000D01*
X141280100Y-80875000D02*
X141280100Y-79350000D01*
X141240100Y-80875000D02*
X141240100Y-79354000D01*
X139719100Y-80875000D02*
X139719100Y-80089000D01*
X144364875Y-83390000D02*
X143864875Y-83390000D01*
X140159100Y-84090000D02*
X140159100Y-82955000D01*
X140679100Y-80875000D02*
X140679100Y-79487000D01*
X140079100Y-80875000D02*
X140079100Y-79793000D01*
X139439100Y-83415000D02*
X139439100Y-82955000D01*
X139639100Y-83658000D02*
X139639100Y-82955000D01*
X141320100Y-80875000D02*
X141320100Y-79346000D01*
X139759100Y-80875000D02*
X139759100Y-80051000D01*
X139599100Y-80875000D02*
X139599100Y-80216000D01*
X144114875Y-83640000D02*
X144114875Y-83140000D01*
X140719100Y-80875000D02*
X140719100Y-79473000D01*
X140519100Y-80875000D02*
X140519100Y-79550000D01*
X141320100Y-84484000D02*
X141320100Y-82955000D01*
X139519100Y-80875000D02*
X139519100Y-80310000D01*
X140960100Y-80875000D02*
X140960100Y-79404000D01*
X141360100Y-84488000D02*
X141360100Y-79342000D01*
X139399100Y-83358000D02*
X139399100Y-82955000D01*
X140719100Y-84357000D02*
X140719100Y-82955000D01*
X139879100Y-80875000D02*
X139879100Y-79944000D01*
X139039100Y-82592000D02*
X139039100Y-81238000D01*
X139719100Y-83741000D02*
X139719100Y-82955000D01*
X140839100Y-84395000D02*
X140839100Y-82955000D01*
X141160100Y-80875000D02*
X141160100Y-79365000D01*
X140759100Y-84370000D02*
X140759100Y-82955000D01*
X140119100Y-84064000D02*
X140119100Y-82955000D01*
X140039100Y-80875000D02*
X140039100Y-79820000D01*
X140759100Y-80875000D02*
X140759100Y-79460000D01*
X141400100Y-84491000D02*
X141400100Y-79339000D01*
X140119100Y-80875000D02*
X140119100Y-79766000D01*
X141120100Y-84458000D02*
X141120100Y-82955000D01*
X139959100Y-80875000D02*
X139959100Y-79880000D01*
X140159100Y-80875000D02*
X140159100Y-79740000D01*
X140920100Y-84416000D02*
X140920100Y-82955000D01*
X138999100Y-82433000D02*
X138999100Y-81397000D01*
X140920100Y-80875000D02*
X140920100Y-79414000D01*
X141280100Y-84480000D02*
X141280100Y-82955000D01*
X140960100Y-84426000D02*
X140960100Y-82955000D01*
X140239100Y-80875000D02*
X140239100Y-79691000D01*
X139839100Y-80875000D02*
X139839100Y-79978000D01*
X141040100Y-80875000D02*
X141040100Y-79387000D01*
X139559100Y-80875000D02*
X139559100Y-80262000D01*
X140799100Y-80875000D02*
X140799100Y-79447000D01*
X139919100Y-83919000D02*
X139919100Y-82955000D01*
X139279100Y-80875000D02*
X139279100Y-80664000D01*
X139479100Y-83469000D02*
X139479100Y-82955000D01*
X141560100Y-84495000D02*
X141560100Y-79335000D01*
X140279100Y-80875000D02*
X140279100Y-79668000D01*
X140439100Y-80875000D02*
X140439100Y-79586000D01*
X139999100Y-83980000D02*
X139999100Y-82955000D01*
X140199100Y-84115000D02*
X140199100Y-82955000D01*
X140519100Y-84280000D02*
X140519100Y-82955000D01*
X139759100Y-83779000D02*
X139759100Y-82955000D01*
X140319100Y-84183000D02*
X140319100Y-82955000D01*
X139159100Y-82926000D02*
X139159100Y-80904000D01*
X139359100Y-80875000D02*
X139359100Y-80532000D01*
X140880100Y-84406000D02*
X140880100Y-82955000D01*
X140679100Y-84343000D02*
X140679100Y-82955000D01*
X140279100Y-84162000D02*
X140279100Y-82955000D01*
X140599100Y-80875000D02*
X140599100Y-79517000D01*
X139679100Y-83700000D02*
X139679100Y-82955000D01*
X141000100Y-80875000D02*
X141000100Y-79395000D01*
X140559100Y-80875000D02*
X140559100Y-79533000D01*
X139559100Y-83568000D02*
X139559100Y-82955000D01*
X139319100Y-80875000D02*
X139319100Y-80596000D01*
X141240100Y-84476000D02*
X141240100Y-82955000D01*
X140239100Y-84139000D02*
X140239100Y-82955000D01*
X140039100Y-84010000D02*
X140039100Y-82955000D01*
X138959100Y-82199000D02*
X138959100Y-81631000D01*
X139519100Y-83520000D02*
X139519100Y-82955000D01*
X140479100Y-84263000D02*
X140479100Y-82955000D01*
X139279100Y-83166000D02*
X139279100Y-82955000D01*
X139439100Y-80875000D02*
X139439100Y-80415000D01*
X140799100Y-84383000D02*
X140799100Y-82955000D01*
X139999100Y-80875000D02*
X139999100Y-79850000D01*
X144180100Y-81915000D02*
G75*
G03*
X144180100Y-81915000I-2620000J0D01*
G01*
%TO.C,J4*%
X104075000Y-80005000D02*
X104075000Y-78675000D01*
X104075000Y-83875000D02*
X109275000Y-83875000D01*
X109275000Y-78675000D02*
X109275000Y-83875000D01*
X104075000Y-81275000D02*
X106675000Y-81275000D01*
X106675000Y-78675000D02*
X109275000Y-78675000D01*
X104075000Y-81275000D02*
X104075000Y-83875000D01*
X104075000Y-78675000D02*
X105405000Y-78675000D01*
X106675000Y-81275000D02*
X106675000Y-78675000D01*
%TO.C,Y1*%
X134745000Y-78755000D02*
X128345000Y-78755000D01*
X134745000Y-83805000D02*
X128345000Y-83805000D01*
X134745000Y-83805000D02*
G75*
G03*
X134745000Y-78755000I0J2525000D01*
G01*
X128345000Y-78755000D02*
G75*
G03*
X128345000Y-83805000I0J-2525000D01*
G01*
%TO.C,J1*%
X116055000Y-93218375D02*
X115805000Y-92785362D01*
X106090000Y-106019700D02*
X106090000Y-93679700D01*
X106090000Y-93679700D02*
X145410000Y-93679700D01*
X116305000Y-92785362D02*
X116055000Y-93218375D01*
X145410000Y-93679700D02*
X145410000Y-106019700D01*
X115805000Y-92785362D02*
X116305000Y-92785362D01*
D10*
%TO.C,RV1*%
X149940000Y-102600000D02*
X149940000Y-100600000D01*
X148940000Y-101600000D02*
X150940000Y-101600000D01*
%TD*%
M02*
