%TF.GenerationSoftware,KiCad,Pcbnew,(6.0.6-0)*%
%TF.CreationDate,2022-10-23T01:51:18+09:00*%
%TF.ProjectId,Subaru,53756261-7275-42e6-9b69-6361645f7063,rev?*%
%TF.SameCoordinates,Original*%
%TF.FileFunction,Paste,Bot*%
%TF.FilePolarity,Positive*%
%FSLAX46Y46*%
G04 Gerber Fmt 4.6, Leading zero omitted, Abs format (unit mm)*
G04 Created by KiCad (PCBNEW (6.0.6-0)) date 2022-10-23 01:51:18*
%MOMM*%
%LPD*%
G01*
G04 APERTURE LIST*
G04 Aperture macros list*
%AMRoundRect*
0 Rectangle with rounded corners*
0 $1 Rounding radius*
0 $2 $3 $4 $5 $6 $7 $8 $9 X,Y pos of 4 corners*
0 Add a 4 corners polygon primitive as box body*
4,1,4,$2,$3,$4,$5,$6,$7,$8,$9,$2,$3,0*
0 Add four circle primitives for the rounded corners*
1,1,$1+$1,$2,$3*
1,1,$1+$1,$4,$5*
1,1,$1+$1,$6,$7*
1,1,$1+$1,$8,$9*
0 Add four rect primitives between the rounded corners*
20,1,$1+$1,$2,$3,$4,$5,0*
20,1,$1+$1,$4,$5,$6,$7,0*
20,1,$1+$1,$6,$7,$8,$9,0*
20,1,$1+$1,$8,$9,$2,$3,0*%
G04 Aperture macros list end*
%ADD10R,0.600000X2.000000*%
%ADD11RoundRect,0.218750X0.218750X0.381250X-0.218750X0.381250X-0.218750X-0.381250X0.218750X-0.381250X0*%
%ADD12RoundRect,0.225000X-0.225000X-0.250000X0.225000X-0.250000X0.225000X0.250000X-0.225000X0.250000X0*%
%ADD13RoundRect,0.200000X0.200000X0.275000X-0.200000X0.275000X-0.200000X-0.275000X0.200000X-0.275000X0*%
%ADD14R,1.200000X0.700000*%
%ADD15R,1.200000X0.800000*%
%ADD16R,1.200000X0.760000*%
%ADD17RoundRect,0.225000X0.225000X0.250000X-0.225000X0.250000X-0.225000X-0.250000X0.225000X-0.250000X0*%
%ADD18RoundRect,0.225000X0.250000X-0.225000X0.250000X0.225000X-0.250000X0.225000X-0.250000X-0.225000X0*%
%ADD19RoundRect,0.200000X-0.200000X-0.275000X0.200000X-0.275000X0.200000X0.275000X-0.200000X0.275000X0*%
%ADD20RoundRect,0.150000X-0.150000X0.825000X-0.150000X-0.825000X0.150000X-0.825000X0.150000X0.825000X0*%
G04 APERTURE END LIST*
D10*
%TO.C,U2*%
X127635000Y-85800000D03*
X128905000Y-85800000D03*
X130175000Y-85800000D03*
X131445000Y-85800000D03*
X132715000Y-85800000D03*
X133985000Y-85800000D03*
X135255000Y-85800000D03*
X136525000Y-85800000D03*
X137795000Y-85800000D03*
X139065000Y-85800000D03*
X140335000Y-85800000D03*
X141605000Y-85800000D03*
X141605000Y-92000000D03*
X140335000Y-92000000D03*
X139065000Y-92000000D03*
X137795000Y-92000000D03*
X136525000Y-92000000D03*
X135255000Y-92000000D03*
X133985000Y-92000000D03*
X132715000Y-92000000D03*
X131445000Y-92000000D03*
X130175000Y-92000000D03*
X128905000Y-92000000D03*
X127635000Y-92000000D03*
%TD*%
D11*
%TO.C,L1*%
X143302500Y-101600000D03*
X141177500Y-101600000D03*
%TD*%
D12*
%TO.C,C6*%
X130670000Y-79375000D03*
X132220000Y-79375000D03*
%TD*%
D13*
%TO.C,R3*%
X147510000Y-74930000D03*
X145860000Y-74930000D03*
%TD*%
D14*
%TO.C,J3*%
X149320000Y-75065000D03*
X149320000Y-76065000D03*
D15*
X149320000Y-78315000D03*
X149320000Y-72815000D03*
D16*
X149320000Y-77085000D03*
X149320000Y-74045000D03*
%TD*%
D17*
%TO.C,C7*%
X115075000Y-92075000D03*
X113525000Y-92075000D03*
%TD*%
%TO.C,C10*%
X138570000Y-101600000D03*
X137020000Y-101600000D03*
%TD*%
D18*
%TO.C,C3*%
X149860000Y-85865000D03*
X149860000Y-84315000D03*
%TD*%
%TO.C,C2*%
X149900000Y-94120000D03*
X149900000Y-92570000D03*
%TD*%
D13*
%TO.C,R4*%
X147510000Y-76200000D03*
X145860000Y-76200000D03*
%TD*%
D19*
%TO.C,R1*%
X113475000Y-88265000D03*
X115125000Y-88265000D03*
%TD*%
D17*
%TO.C,C9*%
X141110000Y-93980000D03*
X139560000Y-93980000D03*
%TD*%
D19*
%TO.C,R2*%
X113475000Y-86360000D03*
X115125000Y-86360000D03*
%TD*%
D17*
%TO.C,C4*%
X135395000Y-79375000D03*
X133845000Y-79375000D03*
%TD*%
D19*
%TO.C,R5*%
X130620000Y-81280000D03*
X132270000Y-81280000D03*
%TD*%
D13*
%TO.C,R8*%
X144335000Y-93980000D03*
X142685000Y-93980000D03*
%TD*%
D20*
%TO.C,U1*%
X116840000Y-87060000D03*
X118110000Y-87060000D03*
X119380000Y-87060000D03*
X120650000Y-87060000D03*
X121920000Y-87060000D03*
X123190000Y-87060000D03*
X124460000Y-87060000D03*
X124460000Y-92010000D03*
X123190000Y-92010000D03*
X121920000Y-92010000D03*
X120650000Y-92010000D03*
X119380000Y-92010000D03*
X118110000Y-92010000D03*
X116840000Y-92010000D03*
%TD*%
D18*
%TO.C,C1*%
X149940000Y-102375000D03*
X149940000Y-100825000D03*
%TD*%
D13*
%TO.C,R7*%
X141350000Y-77470000D03*
X139700000Y-77470000D03*
%TD*%
D12*
%TO.C,C5*%
X143370000Y-85725000D03*
X144920000Y-85725000D03*
%TD*%
M02*
