M48
; DRILL file {KiCad (6.0.6-0)} date Sunday, 23 October 2022 at 01:51:21
; FORMAT={-:-/ absolute / inch / decimal}
; #@! TF.CreationDate,2022-10-23T01:51:21+09:00
; #@! TF.GenerationSoftware,Kicad,Pcbnew,(6.0.6-0)
; #@! TF.FileFunction,MixedPlating,1,2
FMAT,2
INCH
; #@! TA.AperFunction,Plated,PTH,ViaDrill
T1C0.0157
; #@! TA.AperFunction,Plated,PTH,ComponentDrill
T2C0.0157
; #@! TA.AperFunction,Plated,PTH,ComponentDrill
T3C0.0197
; #@! TA.AperFunction,Plated,PTH,ComponentDrill
T4C0.0236
; #@! TA.AperFunction,Plated,PTH,ComponentDrill
T5C0.0315
; #@! TA.AperFunction,Plated,PTH,ComponentDrill
T6C0.0394
; #@! TA.AperFunction,Plated,PTH,ComponentDrill
T7C0.0472
; #@! TA.AperFunction,Plated,PTH,ComponentDrill
T8C0.1260
%
G90
G05
T1
X4.5796Y-3.492
X4.831Y-3.4891
X5.0898Y-3.4434
X5.1856Y-3.441
X5.2052Y-3.2429
X5.2359Y-3.544
X5.4512Y-3.4398
X5.5722Y-2.9529
X5.6169Y-3.4128
X5.7633Y-3.2506
X5.7812Y-3.5009
X5.8913Y-3.5527
X5.9376Y-3.9272
T5
X5.0829Y-3.2
X5.275Y-3.2
X5.524Y-3.225
X5.6224Y-3.225
T6
X4.1498Y-3.1498
X4.1498Y-3.2498
X4.15Y-3.4
X4.15Y-3.5
X4.15Y-3.6
X4.2498Y-3.1498
X4.2498Y-3.2498
X4.25Y-3.4
X4.25Y-3.5
X4.25Y-3.6
X4.4856Y-2.9
X4.5307Y-2.785
X4.5307Y-3.0
X4.5691Y-3.7614
X4.5758Y-2.9
X4.6209Y-2.785
X4.6209Y-3.0
X4.6236Y-3.8732
X4.6659Y-2.9
X4.6781Y-3.7614
X4.711Y-2.785
X4.711Y-3.0
X4.7327Y-3.8732
X4.7561Y-2.9
X4.7872Y-3.7614
X4.8012Y-2.785
X4.8012Y-3.0
X4.8417Y-3.8732
X4.8463Y-2.9
X4.8913Y-2.785
X4.8913Y-3.0
X4.8963Y-3.7614
X4.9508Y-3.8732
X5.0053Y-3.7614
X5.0598Y-3.8732
X5.1144Y-3.7614
X5.1689Y-3.8732
X5.2234Y-3.7614
X5.278Y-3.8732
X5.3325Y-3.7614
T7
X5.8031Y-3.35
X5.8031Y-3.675
X5.8047Y-4.0
X6.0Y-3.2516
X6.0Y-3.4484
X6.0Y-3.5766
X6.0Y-3.7734
X6.0016Y-3.9016
X6.0016Y-4.0984
T8
X4.2085Y-2.9
X4.2953Y-3.8173
X5.1927Y-2.9
X5.6063Y-3.8173
T2
G00X5.5161Y-2.7734
M15
G01X5.5161Y-2.797
M16
G05
G00X5.5161Y-2.8679
M15
G01X5.5161Y-2.8915
M16
G05
G00X5.7839Y-2.7734
M15
G01X5.7839Y-2.797
M16
G05
G00X5.7839Y-2.8718
M15
G01X5.7839Y-2.8955
M16
G05
T3
G00X5.3843Y-2.6179
M15
G01X5.3843Y-2.7163
M16
G05
G00X5.6008Y-2.6356
M15
G01X5.6992Y-2.6356
M16
G05
G00X5.9157Y-2.6179
M15
G01X5.9157Y-2.7163
M16
G05
T4
G00X5.8937Y-2.8049
M15
G01X5.8701Y-2.8049
M16
G05
G00X5.8937Y-3.1451
M15
G01X5.8701Y-3.1451
M16
G05
G00X6.0433Y-2.8049
M15
G01X6.0197Y-2.8049
M16
G05
G00X6.0433Y-3.1451
M15
G01X6.0197Y-3.1451
M16
G05
T0
M30
