%TF.GenerationSoftware,KiCad,Pcbnew,(6.0.6-0)*%
%TF.CreationDate,2022-10-23T01:51:18+09:00*%
%TF.ProjectId,Subaru,53756261-7275-42e6-9b69-6361645f7063,rev?*%
%TF.SameCoordinates,Original*%
%TF.FileFunction,Soldermask,Top*%
%TF.FilePolarity,Negative*%
%FSLAX46Y46*%
G04 Gerber Fmt 4.6, Leading zero omitted, Abs format (unit mm)*
G04 Created by KiCad (PCBNEW (6.0.6-0)) date 2022-10-23 01:51:18*
%MOMM*%
%LPD*%
G01*
G04 APERTURE LIST*
%ADD10C,0.010000*%
%ADD11C,2.000000*%
%ADD12C,4.000000*%
%ADD13R,1.600000X1.600000*%
%ADD14C,1.600000*%
%ADD15O,1.500000X4.000000*%
%ADD16O,4.000000X1.500000*%
%ADD17O,1.400000X1.400000*%
%ADD18R,1.700000X1.700000*%
%ADD19O,1.700000X1.700000*%
%ADD20C,1.500000*%
G04 APERTURE END LIST*
%TO.C,J3*%
G36*
X153534000Y-79236000D02*
G01*
X153568000Y-79239000D01*
X153602000Y-79243000D01*
X153635000Y-79249000D01*
X153668000Y-79257000D01*
X153701000Y-79267000D01*
X153733000Y-79278000D01*
X153764000Y-79291000D01*
X153795000Y-79306000D01*
X153825000Y-79322000D01*
X153854000Y-79340000D01*
X153882000Y-79359000D01*
X153909000Y-79380000D01*
X153935000Y-79402000D01*
X153960000Y-79425000D01*
X153983000Y-79450000D01*
X154005000Y-79476000D01*
X154026000Y-79503000D01*
X154045000Y-79531000D01*
X154063000Y-79560000D01*
X154079000Y-79590000D01*
X154094000Y-79621000D01*
X154107000Y-79652000D01*
X154118000Y-79684000D01*
X154128000Y-79717000D01*
X154136000Y-79750000D01*
X154142000Y-79783000D01*
X154146000Y-79817000D01*
X154149000Y-79851000D01*
X154150000Y-79885000D01*
X154149000Y-79919000D01*
X154146000Y-79953000D01*
X154142000Y-79987000D01*
X154136000Y-80020000D01*
X154128000Y-80053000D01*
X154118000Y-80086000D01*
X154107000Y-80118000D01*
X154094000Y-80149000D01*
X154079000Y-80180000D01*
X154063000Y-80210000D01*
X154045000Y-80239000D01*
X154026000Y-80267000D01*
X154005000Y-80294000D01*
X153983000Y-80320000D01*
X153960000Y-80345000D01*
X153935000Y-80368000D01*
X153909000Y-80390000D01*
X153882000Y-80411000D01*
X153854000Y-80430000D01*
X153825000Y-80448000D01*
X153795000Y-80464000D01*
X153764000Y-80479000D01*
X153733000Y-80492000D01*
X153701000Y-80503000D01*
X153668000Y-80513000D01*
X153635000Y-80521000D01*
X153602000Y-80527000D01*
X153568000Y-80531000D01*
X153534000Y-80534000D01*
X153500000Y-80535000D01*
X152900000Y-80535000D01*
X152866000Y-80534000D01*
X152832000Y-80531000D01*
X152798000Y-80527000D01*
X152765000Y-80521000D01*
X152732000Y-80513000D01*
X152699000Y-80503000D01*
X152667000Y-80492000D01*
X152636000Y-80479000D01*
X152605000Y-80464000D01*
X152575000Y-80448000D01*
X152546000Y-80430000D01*
X152518000Y-80411000D01*
X152491000Y-80390000D01*
X152465000Y-80368000D01*
X152440000Y-80345000D01*
X152417000Y-80320000D01*
X152395000Y-80294000D01*
X152374000Y-80267000D01*
X152355000Y-80239000D01*
X152337000Y-80210000D01*
X152321000Y-80180000D01*
X152306000Y-80149000D01*
X152293000Y-80118000D01*
X152282000Y-80086000D01*
X152272000Y-80053000D01*
X152264000Y-80020000D01*
X152258000Y-79987000D01*
X152254000Y-79953000D01*
X152251000Y-79919000D01*
X152250000Y-79885000D01*
X152251000Y-79851000D01*
X152254000Y-79817000D01*
X152258000Y-79783000D01*
X152264000Y-79750000D01*
X152272000Y-79717000D01*
X152282000Y-79684000D01*
X152293000Y-79652000D01*
X152306000Y-79621000D01*
X152321000Y-79590000D01*
X152337000Y-79560000D01*
X152355000Y-79531000D01*
X152374000Y-79503000D01*
X152395000Y-79476000D01*
X152417000Y-79450000D01*
X152440000Y-79425000D01*
X152465000Y-79402000D01*
X152491000Y-79380000D01*
X152518000Y-79359000D01*
X152546000Y-79340000D01*
X152575000Y-79322000D01*
X152605000Y-79306000D01*
X152636000Y-79291000D01*
X152667000Y-79278000D01*
X152699000Y-79267000D01*
X152732000Y-79257000D01*
X152765000Y-79249000D01*
X152798000Y-79243000D01*
X152832000Y-79239000D01*
X152866000Y-79236000D01*
X152900000Y-79235000D01*
X153500000Y-79235000D01*
X153534000Y-79236000D01*
G37*
D10*
X153534000Y-79236000D02*
X153568000Y-79239000D01*
X153602000Y-79243000D01*
X153635000Y-79249000D01*
X153668000Y-79257000D01*
X153701000Y-79267000D01*
X153733000Y-79278000D01*
X153764000Y-79291000D01*
X153795000Y-79306000D01*
X153825000Y-79322000D01*
X153854000Y-79340000D01*
X153882000Y-79359000D01*
X153909000Y-79380000D01*
X153935000Y-79402000D01*
X153960000Y-79425000D01*
X153983000Y-79450000D01*
X154005000Y-79476000D01*
X154026000Y-79503000D01*
X154045000Y-79531000D01*
X154063000Y-79560000D01*
X154079000Y-79590000D01*
X154094000Y-79621000D01*
X154107000Y-79652000D01*
X154118000Y-79684000D01*
X154128000Y-79717000D01*
X154136000Y-79750000D01*
X154142000Y-79783000D01*
X154146000Y-79817000D01*
X154149000Y-79851000D01*
X154150000Y-79885000D01*
X154149000Y-79919000D01*
X154146000Y-79953000D01*
X154142000Y-79987000D01*
X154136000Y-80020000D01*
X154128000Y-80053000D01*
X154118000Y-80086000D01*
X154107000Y-80118000D01*
X154094000Y-80149000D01*
X154079000Y-80180000D01*
X154063000Y-80210000D01*
X154045000Y-80239000D01*
X154026000Y-80267000D01*
X154005000Y-80294000D01*
X153983000Y-80320000D01*
X153960000Y-80345000D01*
X153935000Y-80368000D01*
X153909000Y-80390000D01*
X153882000Y-80411000D01*
X153854000Y-80430000D01*
X153825000Y-80448000D01*
X153795000Y-80464000D01*
X153764000Y-80479000D01*
X153733000Y-80492000D01*
X153701000Y-80503000D01*
X153668000Y-80513000D01*
X153635000Y-80521000D01*
X153602000Y-80527000D01*
X153568000Y-80531000D01*
X153534000Y-80534000D01*
X153500000Y-80535000D01*
X152900000Y-80535000D01*
X152866000Y-80534000D01*
X152832000Y-80531000D01*
X152798000Y-80527000D01*
X152765000Y-80521000D01*
X152732000Y-80513000D01*
X152699000Y-80503000D01*
X152667000Y-80492000D01*
X152636000Y-80479000D01*
X152605000Y-80464000D01*
X152575000Y-80448000D01*
X152546000Y-80430000D01*
X152518000Y-80411000D01*
X152491000Y-80390000D01*
X152465000Y-80368000D01*
X152440000Y-80345000D01*
X152417000Y-80320000D01*
X152395000Y-80294000D01*
X152374000Y-80267000D01*
X152355000Y-80239000D01*
X152337000Y-80210000D01*
X152321000Y-80180000D01*
X152306000Y-80149000D01*
X152293000Y-80118000D01*
X152282000Y-80086000D01*
X152272000Y-80053000D01*
X152264000Y-80020000D01*
X152258000Y-79987000D01*
X152254000Y-79953000D01*
X152251000Y-79919000D01*
X152250000Y-79885000D01*
X152251000Y-79851000D01*
X152254000Y-79817000D01*
X152258000Y-79783000D01*
X152264000Y-79750000D01*
X152272000Y-79717000D01*
X152282000Y-79684000D01*
X152293000Y-79652000D01*
X152306000Y-79621000D01*
X152321000Y-79590000D01*
X152337000Y-79560000D01*
X152355000Y-79531000D01*
X152374000Y-79503000D01*
X152395000Y-79476000D01*
X152417000Y-79450000D01*
X152440000Y-79425000D01*
X152465000Y-79402000D01*
X152491000Y-79380000D01*
X152518000Y-79359000D01*
X152546000Y-79340000D01*
X152575000Y-79322000D01*
X152605000Y-79306000D01*
X152636000Y-79291000D01*
X152667000Y-79278000D01*
X152699000Y-79267000D01*
X152732000Y-79257000D01*
X152765000Y-79249000D01*
X152798000Y-79243000D01*
X152832000Y-79239000D01*
X152866000Y-79236000D01*
X152900000Y-79235000D01*
X153500000Y-79235000D01*
X153534000Y-79236000D01*
G36*
X149734000Y-79236000D02*
G01*
X149768000Y-79239000D01*
X149802000Y-79243000D01*
X149835000Y-79249000D01*
X149868000Y-79257000D01*
X149901000Y-79267000D01*
X149933000Y-79278000D01*
X149964000Y-79291000D01*
X149995000Y-79306000D01*
X150025000Y-79322000D01*
X150054000Y-79340000D01*
X150082000Y-79359000D01*
X150109000Y-79380000D01*
X150135000Y-79402000D01*
X150160000Y-79425000D01*
X150183000Y-79450000D01*
X150205000Y-79476000D01*
X150226000Y-79503000D01*
X150245000Y-79531000D01*
X150263000Y-79560000D01*
X150279000Y-79590000D01*
X150294000Y-79621000D01*
X150307000Y-79652000D01*
X150318000Y-79684000D01*
X150328000Y-79717000D01*
X150336000Y-79750000D01*
X150342000Y-79783000D01*
X150346000Y-79817000D01*
X150349000Y-79851000D01*
X150350000Y-79885000D01*
X150349000Y-79919000D01*
X150346000Y-79953000D01*
X150342000Y-79987000D01*
X150336000Y-80020000D01*
X150328000Y-80053000D01*
X150318000Y-80086000D01*
X150307000Y-80118000D01*
X150294000Y-80149000D01*
X150279000Y-80180000D01*
X150263000Y-80210000D01*
X150245000Y-80239000D01*
X150226000Y-80267000D01*
X150205000Y-80294000D01*
X150183000Y-80320000D01*
X150160000Y-80345000D01*
X150135000Y-80368000D01*
X150109000Y-80390000D01*
X150082000Y-80411000D01*
X150054000Y-80430000D01*
X150025000Y-80448000D01*
X149995000Y-80464000D01*
X149964000Y-80479000D01*
X149933000Y-80492000D01*
X149901000Y-80503000D01*
X149868000Y-80513000D01*
X149835000Y-80521000D01*
X149802000Y-80527000D01*
X149768000Y-80531000D01*
X149734000Y-80534000D01*
X149700000Y-80535000D01*
X149100000Y-80535000D01*
X149066000Y-80534000D01*
X149032000Y-80531000D01*
X148998000Y-80527000D01*
X148965000Y-80521000D01*
X148932000Y-80513000D01*
X148899000Y-80503000D01*
X148867000Y-80492000D01*
X148836000Y-80479000D01*
X148805000Y-80464000D01*
X148775000Y-80448000D01*
X148746000Y-80430000D01*
X148718000Y-80411000D01*
X148691000Y-80390000D01*
X148665000Y-80368000D01*
X148640000Y-80345000D01*
X148617000Y-80320000D01*
X148595000Y-80294000D01*
X148574000Y-80267000D01*
X148555000Y-80239000D01*
X148537000Y-80210000D01*
X148521000Y-80180000D01*
X148506000Y-80149000D01*
X148493000Y-80118000D01*
X148482000Y-80086000D01*
X148472000Y-80053000D01*
X148464000Y-80020000D01*
X148458000Y-79987000D01*
X148454000Y-79953000D01*
X148451000Y-79919000D01*
X148450000Y-79885000D01*
X148451000Y-79851000D01*
X148454000Y-79817000D01*
X148458000Y-79783000D01*
X148464000Y-79750000D01*
X148472000Y-79717000D01*
X148482000Y-79684000D01*
X148493000Y-79652000D01*
X148506000Y-79621000D01*
X148521000Y-79590000D01*
X148537000Y-79560000D01*
X148555000Y-79531000D01*
X148574000Y-79503000D01*
X148595000Y-79476000D01*
X148617000Y-79450000D01*
X148640000Y-79425000D01*
X148665000Y-79402000D01*
X148691000Y-79380000D01*
X148718000Y-79359000D01*
X148746000Y-79340000D01*
X148775000Y-79322000D01*
X148805000Y-79306000D01*
X148836000Y-79291000D01*
X148867000Y-79278000D01*
X148899000Y-79267000D01*
X148932000Y-79257000D01*
X148965000Y-79249000D01*
X148998000Y-79243000D01*
X149032000Y-79239000D01*
X149066000Y-79236000D01*
X149100000Y-79235000D01*
X149700000Y-79235000D01*
X149734000Y-79236000D01*
G37*
X149734000Y-79236000D02*
X149768000Y-79239000D01*
X149802000Y-79243000D01*
X149835000Y-79249000D01*
X149868000Y-79257000D01*
X149901000Y-79267000D01*
X149933000Y-79278000D01*
X149964000Y-79291000D01*
X149995000Y-79306000D01*
X150025000Y-79322000D01*
X150054000Y-79340000D01*
X150082000Y-79359000D01*
X150109000Y-79380000D01*
X150135000Y-79402000D01*
X150160000Y-79425000D01*
X150183000Y-79450000D01*
X150205000Y-79476000D01*
X150226000Y-79503000D01*
X150245000Y-79531000D01*
X150263000Y-79560000D01*
X150279000Y-79590000D01*
X150294000Y-79621000D01*
X150307000Y-79652000D01*
X150318000Y-79684000D01*
X150328000Y-79717000D01*
X150336000Y-79750000D01*
X150342000Y-79783000D01*
X150346000Y-79817000D01*
X150349000Y-79851000D01*
X150350000Y-79885000D01*
X150349000Y-79919000D01*
X150346000Y-79953000D01*
X150342000Y-79987000D01*
X150336000Y-80020000D01*
X150328000Y-80053000D01*
X150318000Y-80086000D01*
X150307000Y-80118000D01*
X150294000Y-80149000D01*
X150279000Y-80180000D01*
X150263000Y-80210000D01*
X150245000Y-80239000D01*
X150226000Y-80267000D01*
X150205000Y-80294000D01*
X150183000Y-80320000D01*
X150160000Y-80345000D01*
X150135000Y-80368000D01*
X150109000Y-80390000D01*
X150082000Y-80411000D01*
X150054000Y-80430000D01*
X150025000Y-80448000D01*
X149995000Y-80464000D01*
X149964000Y-80479000D01*
X149933000Y-80492000D01*
X149901000Y-80503000D01*
X149868000Y-80513000D01*
X149835000Y-80521000D01*
X149802000Y-80527000D01*
X149768000Y-80531000D01*
X149734000Y-80534000D01*
X149700000Y-80535000D01*
X149100000Y-80535000D01*
X149066000Y-80534000D01*
X149032000Y-80531000D01*
X148998000Y-80527000D01*
X148965000Y-80521000D01*
X148932000Y-80513000D01*
X148899000Y-80503000D01*
X148867000Y-80492000D01*
X148836000Y-80479000D01*
X148805000Y-80464000D01*
X148775000Y-80448000D01*
X148746000Y-80430000D01*
X148718000Y-80411000D01*
X148691000Y-80390000D01*
X148665000Y-80368000D01*
X148640000Y-80345000D01*
X148617000Y-80320000D01*
X148595000Y-80294000D01*
X148574000Y-80267000D01*
X148555000Y-80239000D01*
X148537000Y-80210000D01*
X148521000Y-80180000D01*
X148506000Y-80149000D01*
X148493000Y-80118000D01*
X148482000Y-80086000D01*
X148472000Y-80053000D01*
X148464000Y-80020000D01*
X148458000Y-79987000D01*
X148454000Y-79953000D01*
X148451000Y-79919000D01*
X148450000Y-79885000D01*
X148451000Y-79851000D01*
X148454000Y-79817000D01*
X148458000Y-79783000D01*
X148464000Y-79750000D01*
X148472000Y-79717000D01*
X148482000Y-79684000D01*
X148493000Y-79652000D01*
X148506000Y-79621000D01*
X148521000Y-79590000D01*
X148537000Y-79560000D01*
X148555000Y-79531000D01*
X148574000Y-79503000D01*
X148595000Y-79476000D01*
X148617000Y-79450000D01*
X148640000Y-79425000D01*
X148665000Y-79402000D01*
X148691000Y-79380000D01*
X148718000Y-79359000D01*
X148746000Y-79340000D01*
X148775000Y-79322000D01*
X148805000Y-79306000D01*
X148836000Y-79291000D01*
X148867000Y-79278000D01*
X148899000Y-79267000D01*
X148932000Y-79257000D01*
X148965000Y-79249000D01*
X148998000Y-79243000D01*
X149032000Y-79239000D01*
X149066000Y-79236000D01*
X149100000Y-79235000D01*
X149700000Y-79235000D01*
X149734000Y-79236000D01*
G36*
X149734000Y-70596000D02*
G01*
X149768000Y-70599000D01*
X149802000Y-70603000D01*
X149835000Y-70609000D01*
X149868000Y-70617000D01*
X149901000Y-70627000D01*
X149933000Y-70638000D01*
X149964000Y-70651000D01*
X149995000Y-70666000D01*
X150025000Y-70682000D01*
X150054000Y-70700000D01*
X150082000Y-70719000D01*
X150109000Y-70740000D01*
X150135000Y-70762000D01*
X150160000Y-70785000D01*
X150183000Y-70810000D01*
X150205000Y-70836000D01*
X150226000Y-70863000D01*
X150245000Y-70891000D01*
X150263000Y-70920000D01*
X150279000Y-70950000D01*
X150294000Y-70981000D01*
X150307000Y-71012000D01*
X150318000Y-71044000D01*
X150328000Y-71077000D01*
X150336000Y-71110000D01*
X150342000Y-71143000D01*
X150346000Y-71177000D01*
X150349000Y-71211000D01*
X150350000Y-71245000D01*
X150349000Y-71279000D01*
X150346000Y-71313000D01*
X150342000Y-71347000D01*
X150336000Y-71380000D01*
X150328000Y-71413000D01*
X150318000Y-71446000D01*
X150307000Y-71478000D01*
X150294000Y-71509000D01*
X150279000Y-71540000D01*
X150263000Y-71570000D01*
X150245000Y-71599000D01*
X150226000Y-71627000D01*
X150205000Y-71654000D01*
X150183000Y-71680000D01*
X150160000Y-71705000D01*
X150135000Y-71728000D01*
X150109000Y-71750000D01*
X150082000Y-71771000D01*
X150054000Y-71790000D01*
X150025000Y-71808000D01*
X149995000Y-71824000D01*
X149964000Y-71839000D01*
X149933000Y-71852000D01*
X149901000Y-71863000D01*
X149868000Y-71873000D01*
X149835000Y-71881000D01*
X149802000Y-71887000D01*
X149768000Y-71891000D01*
X149734000Y-71894000D01*
X149700000Y-71895000D01*
X149100000Y-71895000D01*
X149066000Y-71894000D01*
X149032000Y-71891000D01*
X148998000Y-71887000D01*
X148965000Y-71881000D01*
X148932000Y-71873000D01*
X148899000Y-71863000D01*
X148867000Y-71852000D01*
X148836000Y-71839000D01*
X148805000Y-71824000D01*
X148775000Y-71808000D01*
X148746000Y-71790000D01*
X148718000Y-71771000D01*
X148691000Y-71750000D01*
X148665000Y-71728000D01*
X148640000Y-71705000D01*
X148617000Y-71680000D01*
X148595000Y-71654000D01*
X148574000Y-71627000D01*
X148555000Y-71599000D01*
X148537000Y-71570000D01*
X148521000Y-71540000D01*
X148506000Y-71509000D01*
X148493000Y-71478000D01*
X148482000Y-71446000D01*
X148472000Y-71413000D01*
X148464000Y-71380000D01*
X148458000Y-71347000D01*
X148454000Y-71313000D01*
X148451000Y-71279000D01*
X148450000Y-71245000D01*
X148451000Y-71211000D01*
X148454000Y-71177000D01*
X148458000Y-71143000D01*
X148464000Y-71110000D01*
X148472000Y-71077000D01*
X148482000Y-71044000D01*
X148493000Y-71012000D01*
X148506000Y-70981000D01*
X148521000Y-70950000D01*
X148537000Y-70920000D01*
X148555000Y-70891000D01*
X148574000Y-70863000D01*
X148595000Y-70836000D01*
X148617000Y-70810000D01*
X148640000Y-70785000D01*
X148665000Y-70762000D01*
X148691000Y-70740000D01*
X148718000Y-70719000D01*
X148746000Y-70700000D01*
X148775000Y-70682000D01*
X148805000Y-70666000D01*
X148836000Y-70651000D01*
X148867000Y-70638000D01*
X148899000Y-70627000D01*
X148932000Y-70617000D01*
X148965000Y-70609000D01*
X148998000Y-70603000D01*
X149032000Y-70599000D01*
X149066000Y-70596000D01*
X149100000Y-70595000D01*
X149700000Y-70595000D01*
X149734000Y-70596000D01*
G37*
X149734000Y-70596000D02*
X149768000Y-70599000D01*
X149802000Y-70603000D01*
X149835000Y-70609000D01*
X149868000Y-70617000D01*
X149901000Y-70627000D01*
X149933000Y-70638000D01*
X149964000Y-70651000D01*
X149995000Y-70666000D01*
X150025000Y-70682000D01*
X150054000Y-70700000D01*
X150082000Y-70719000D01*
X150109000Y-70740000D01*
X150135000Y-70762000D01*
X150160000Y-70785000D01*
X150183000Y-70810000D01*
X150205000Y-70836000D01*
X150226000Y-70863000D01*
X150245000Y-70891000D01*
X150263000Y-70920000D01*
X150279000Y-70950000D01*
X150294000Y-70981000D01*
X150307000Y-71012000D01*
X150318000Y-71044000D01*
X150328000Y-71077000D01*
X150336000Y-71110000D01*
X150342000Y-71143000D01*
X150346000Y-71177000D01*
X150349000Y-71211000D01*
X150350000Y-71245000D01*
X150349000Y-71279000D01*
X150346000Y-71313000D01*
X150342000Y-71347000D01*
X150336000Y-71380000D01*
X150328000Y-71413000D01*
X150318000Y-71446000D01*
X150307000Y-71478000D01*
X150294000Y-71509000D01*
X150279000Y-71540000D01*
X150263000Y-71570000D01*
X150245000Y-71599000D01*
X150226000Y-71627000D01*
X150205000Y-71654000D01*
X150183000Y-71680000D01*
X150160000Y-71705000D01*
X150135000Y-71728000D01*
X150109000Y-71750000D01*
X150082000Y-71771000D01*
X150054000Y-71790000D01*
X150025000Y-71808000D01*
X149995000Y-71824000D01*
X149964000Y-71839000D01*
X149933000Y-71852000D01*
X149901000Y-71863000D01*
X149868000Y-71873000D01*
X149835000Y-71881000D01*
X149802000Y-71887000D01*
X149768000Y-71891000D01*
X149734000Y-71894000D01*
X149700000Y-71895000D01*
X149100000Y-71895000D01*
X149066000Y-71894000D01*
X149032000Y-71891000D01*
X148998000Y-71887000D01*
X148965000Y-71881000D01*
X148932000Y-71873000D01*
X148899000Y-71863000D01*
X148867000Y-71852000D01*
X148836000Y-71839000D01*
X148805000Y-71824000D01*
X148775000Y-71808000D01*
X148746000Y-71790000D01*
X148718000Y-71771000D01*
X148691000Y-71750000D01*
X148665000Y-71728000D01*
X148640000Y-71705000D01*
X148617000Y-71680000D01*
X148595000Y-71654000D01*
X148574000Y-71627000D01*
X148555000Y-71599000D01*
X148537000Y-71570000D01*
X148521000Y-71540000D01*
X148506000Y-71509000D01*
X148493000Y-71478000D01*
X148482000Y-71446000D01*
X148472000Y-71413000D01*
X148464000Y-71380000D01*
X148458000Y-71347000D01*
X148454000Y-71313000D01*
X148451000Y-71279000D01*
X148450000Y-71245000D01*
X148451000Y-71211000D01*
X148454000Y-71177000D01*
X148458000Y-71143000D01*
X148464000Y-71110000D01*
X148472000Y-71077000D01*
X148482000Y-71044000D01*
X148493000Y-71012000D01*
X148506000Y-70981000D01*
X148521000Y-70950000D01*
X148537000Y-70920000D01*
X148555000Y-70891000D01*
X148574000Y-70863000D01*
X148595000Y-70836000D01*
X148617000Y-70810000D01*
X148640000Y-70785000D01*
X148665000Y-70762000D01*
X148691000Y-70740000D01*
X148718000Y-70719000D01*
X148746000Y-70700000D01*
X148775000Y-70682000D01*
X148805000Y-70666000D01*
X148836000Y-70651000D01*
X148867000Y-70638000D01*
X148899000Y-70627000D01*
X148932000Y-70617000D01*
X148965000Y-70609000D01*
X148998000Y-70603000D01*
X149032000Y-70599000D01*
X149066000Y-70596000D01*
X149100000Y-70595000D01*
X149700000Y-70595000D01*
X149734000Y-70596000D01*
G36*
X153534000Y-70596000D02*
G01*
X153568000Y-70599000D01*
X153602000Y-70603000D01*
X153635000Y-70609000D01*
X153668000Y-70617000D01*
X153701000Y-70627000D01*
X153733000Y-70638000D01*
X153764000Y-70651000D01*
X153795000Y-70666000D01*
X153825000Y-70682000D01*
X153854000Y-70700000D01*
X153882000Y-70719000D01*
X153909000Y-70740000D01*
X153935000Y-70762000D01*
X153960000Y-70785000D01*
X153983000Y-70810000D01*
X154005000Y-70836000D01*
X154026000Y-70863000D01*
X154045000Y-70891000D01*
X154063000Y-70920000D01*
X154079000Y-70950000D01*
X154094000Y-70981000D01*
X154107000Y-71012000D01*
X154118000Y-71044000D01*
X154128000Y-71077000D01*
X154136000Y-71110000D01*
X154142000Y-71143000D01*
X154146000Y-71177000D01*
X154149000Y-71211000D01*
X154150000Y-71245000D01*
X154149000Y-71279000D01*
X154146000Y-71313000D01*
X154142000Y-71347000D01*
X154136000Y-71380000D01*
X154128000Y-71413000D01*
X154118000Y-71446000D01*
X154107000Y-71478000D01*
X154094000Y-71509000D01*
X154079000Y-71540000D01*
X154063000Y-71570000D01*
X154045000Y-71599000D01*
X154026000Y-71627000D01*
X154005000Y-71654000D01*
X153983000Y-71680000D01*
X153960000Y-71705000D01*
X153935000Y-71728000D01*
X153909000Y-71750000D01*
X153882000Y-71771000D01*
X153854000Y-71790000D01*
X153825000Y-71808000D01*
X153795000Y-71824000D01*
X153764000Y-71839000D01*
X153733000Y-71852000D01*
X153701000Y-71863000D01*
X153668000Y-71873000D01*
X153635000Y-71881000D01*
X153602000Y-71887000D01*
X153568000Y-71891000D01*
X153534000Y-71894000D01*
X153500000Y-71895000D01*
X152900000Y-71895000D01*
X152866000Y-71894000D01*
X152832000Y-71891000D01*
X152798000Y-71887000D01*
X152765000Y-71881000D01*
X152732000Y-71873000D01*
X152699000Y-71863000D01*
X152667000Y-71852000D01*
X152636000Y-71839000D01*
X152605000Y-71824000D01*
X152575000Y-71808000D01*
X152546000Y-71790000D01*
X152518000Y-71771000D01*
X152491000Y-71750000D01*
X152465000Y-71728000D01*
X152440000Y-71705000D01*
X152417000Y-71680000D01*
X152395000Y-71654000D01*
X152374000Y-71627000D01*
X152355000Y-71599000D01*
X152337000Y-71570000D01*
X152321000Y-71540000D01*
X152306000Y-71509000D01*
X152293000Y-71478000D01*
X152282000Y-71446000D01*
X152272000Y-71413000D01*
X152264000Y-71380000D01*
X152258000Y-71347000D01*
X152254000Y-71313000D01*
X152251000Y-71279000D01*
X152250000Y-71245000D01*
X152251000Y-71211000D01*
X152254000Y-71177000D01*
X152258000Y-71143000D01*
X152264000Y-71110000D01*
X152272000Y-71077000D01*
X152282000Y-71044000D01*
X152293000Y-71012000D01*
X152306000Y-70981000D01*
X152321000Y-70950000D01*
X152337000Y-70920000D01*
X152355000Y-70891000D01*
X152374000Y-70863000D01*
X152395000Y-70836000D01*
X152417000Y-70810000D01*
X152440000Y-70785000D01*
X152465000Y-70762000D01*
X152491000Y-70740000D01*
X152518000Y-70719000D01*
X152546000Y-70700000D01*
X152575000Y-70682000D01*
X152605000Y-70666000D01*
X152636000Y-70651000D01*
X152667000Y-70638000D01*
X152699000Y-70627000D01*
X152732000Y-70617000D01*
X152765000Y-70609000D01*
X152798000Y-70603000D01*
X152832000Y-70599000D01*
X152866000Y-70596000D01*
X152900000Y-70595000D01*
X153500000Y-70595000D01*
X153534000Y-70596000D01*
G37*
X153534000Y-70596000D02*
X153568000Y-70599000D01*
X153602000Y-70603000D01*
X153635000Y-70609000D01*
X153668000Y-70617000D01*
X153701000Y-70627000D01*
X153733000Y-70638000D01*
X153764000Y-70651000D01*
X153795000Y-70666000D01*
X153825000Y-70682000D01*
X153854000Y-70700000D01*
X153882000Y-70719000D01*
X153909000Y-70740000D01*
X153935000Y-70762000D01*
X153960000Y-70785000D01*
X153983000Y-70810000D01*
X154005000Y-70836000D01*
X154026000Y-70863000D01*
X154045000Y-70891000D01*
X154063000Y-70920000D01*
X154079000Y-70950000D01*
X154094000Y-70981000D01*
X154107000Y-71012000D01*
X154118000Y-71044000D01*
X154128000Y-71077000D01*
X154136000Y-71110000D01*
X154142000Y-71143000D01*
X154146000Y-71177000D01*
X154149000Y-71211000D01*
X154150000Y-71245000D01*
X154149000Y-71279000D01*
X154146000Y-71313000D01*
X154142000Y-71347000D01*
X154136000Y-71380000D01*
X154128000Y-71413000D01*
X154118000Y-71446000D01*
X154107000Y-71478000D01*
X154094000Y-71509000D01*
X154079000Y-71540000D01*
X154063000Y-71570000D01*
X154045000Y-71599000D01*
X154026000Y-71627000D01*
X154005000Y-71654000D01*
X153983000Y-71680000D01*
X153960000Y-71705000D01*
X153935000Y-71728000D01*
X153909000Y-71750000D01*
X153882000Y-71771000D01*
X153854000Y-71790000D01*
X153825000Y-71808000D01*
X153795000Y-71824000D01*
X153764000Y-71839000D01*
X153733000Y-71852000D01*
X153701000Y-71863000D01*
X153668000Y-71873000D01*
X153635000Y-71881000D01*
X153602000Y-71887000D01*
X153568000Y-71891000D01*
X153534000Y-71894000D01*
X153500000Y-71895000D01*
X152900000Y-71895000D01*
X152866000Y-71894000D01*
X152832000Y-71891000D01*
X152798000Y-71887000D01*
X152765000Y-71881000D01*
X152732000Y-71873000D01*
X152699000Y-71863000D01*
X152667000Y-71852000D01*
X152636000Y-71839000D01*
X152605000Y-71824000D01*
X152575000Y-71808000D01*
X152546000Y-71790000D01*
X152518000Y-71771000D01*
X152491000Y-71750000D01*
X152465000Y-71728000D01*
X152440000Y-71705000D01*
X152417000Y-71680000D01*
X152395000Y-71654000D01*
X152374000Y-71627000D01*
X152355000Y-71599000D01*
X152337000Y-71570000D01*
X152321000Y-71540000D01*
X152306000Y-71509000D01*
X152293000Y-71478000D01*
X152282000Y-71446000D01*
X152272000Y-71413000D01*
X152264000Y-71380000D01*
X152258000Y-71347000D01*
X152254000Y-71313000D01*
X152251000Y-71279000D01*
X152250000Y-71245000D01*
X152251000Y-71211000D01*
X152254000Y-71177000D01*
X152258000Y-71143000D01*
X152264000Y-71110000D01*
X152272000Y-71077000D01*
X152282000Y-71044000D01*
X152293000Y-71012000D01*
X152306000Y-70981000D01*
X152321000Y-70950000D01*
X152337000Y-70920000D01*
X152355000Y-70891000D01*
X152374000Y-70863000D01*
X152395000Y-70836000D01*
X152417000Y-70810000D01*
X152440000Y-70785000D01*
X152465000Y-70762000D01*
X152491000Y-70740000D01*
X152518000Y-70719000D01*
X152546000Y-70700000D01*
X152575000Y-70682000D01*
X152605000Y-70666000D01*
X152636000Y-70651000D01*
X152667000Y-70638000D01*
X152699000Y-70627000D01*
X152732000Y-70617000D01*
X152765000Y-70609000D01*
X152798000Y-70603000D01*
X152832000Y-70599000D01*
X152866000Y-70596000D01*
X152900000Y-70595000D01*
X153500000Y-70595000D01*
X153534000Y-70596000D01*
%TD*%
D11*
%TO.C,RV2*%
X152400000Y-95845000D03*
X147400000Y-93345000D03*
X152400000Y-90845000D03*
%TD*%
D12*
%TO.C,J7*%
X106895000Y-73660000D03*
X131895000Y-73660000D03*
D13*
X115080000Y-76200000D03*
D14*
X117370000Y-76200000D03*
X119660000Y-76200000D03*
X121950000Y-76200000D03*
X124240000Y-76200000D03*
X113935000Y-73660000D03*
X116225000Y-73660000D03*
X118515000Y-73660000D03*
X120805000Y-73660000D03*
X123095000Y-73660000D03*
X115080000Y-70739000D03*
X117370000Y-70739000D03*
X119660000Y-70739000D03*
X121950000Y-70739000D03*
X124240000Y-70739000D03*
%TD*%
D11*
%TO.C,RV3*%
X152400000Y-87590000D03*
X147400000Y-85090000D03*
X152400000Y-82590000D03*
%TD*%
D15*
%TO.C,J5*%
X150260000Y-67744700D03*
X136760000Y-67744700D03*
D16*
X143510000Y-66944700D03*
D17*
X140110000Y-70744700D03*
X146910000Y-70744700D03*
X140110000Y-73144700D03*
X146910000Y-73244700D03*
%TD*%
D18*
%TO.C,J2*%
X105410000Y-86360000D03*
D19*
X107950000Y-86360000D03*
X105410000Y-88900000D03*
X107950000Y-88900000D03*
X105410000Y-91440000D03*
X107950000Y-91440000D03*
%TD*%
D13*
%TO.C,C8*%
X142810100Y-81915000D03*
D14*
X140310100Y-81915000D03*
%TD*%
D18*
%TO.C,J4*%
X105405000Y-80005000D03*
D19*
X107945000Y-80005000D03*
X105405000Y-82545000D03*
X107945000Y-82545000D03*
%TD*%
D20*
%TO.C,Y1*%
X133985000Y-81280000D03*
X129105000Y-81280000D03*
%TD*%
D12*
%TO.C,J1*%
X109100000Y-96959700D03*
X142400000Y-96959700D03*
D13*
X116055000Y-95539700D03*
D14*
X118825000Y-95539700D03*
X121595000Y-95539700D03*
X124365000Y-95539700D03*
X127135000Y-95539700D03*
X129905000Y-95539700D03*
X132675000Y-95539700D03*
X135445000Y-95539700D03*
X117440000Y-98379700D03*
X120210000Y-98379700D03*
X122980000Y-98379700D03*
X125750000Y-98379700D03*
X128520000Y-98379700D03*
X131290000Y-98379700D03*
X134060000Y-98379700D03*
%TD*%
D11*
%TO.C,RV1*%
X152440000Y-104100000D03*
X147440000Y-101600000D03*
X152440000Y-99100000D03*
%TD*%
M02*
